<svg width="16" height="16" viewBox="0 0 16 16" fill="none" xmlns="http://www.w3.org/2000/svg">
<path d="M8 1C6.61553 1 5.26216 1.41054 4.11101 2.17971C2.95987 2.94888 2.06266 4.04213 1.53285 5.32122C1.00303 6.6003 0.86441 8.00777 1.13451 9.36563C1.4046 10.7235 2.07129 11.9708 3.05026 12.9497C4.02922 13.9287 5.2765 14.5954 6.63437 14.8655C7.99224 15.1356 9.3997 14.997 10.6788 14.4672C11.9579 13.9373 13.0511 13.0401 13.8203 11.889C14.5895 10.7378 15 9.38447 15 8C15 6.14348 14.2625 4.36301 12.9497 3.05025C11.637 1.7375 9.85652 1 8 1V1ZM8 12.5C7.85167 12.5 7.70666 12.456 7.58333 12.3736C7.45999 12.2912 7.36386 12.1741 7.30709 12.037C7.25033 11.9 7.23548 11.7492 7.26441 11.6037C7.29335 11.4582 7.36478 11.3246 7.46967 11.2197C7.57456 11.1148 7.7082 11.0433 7.85369 11.0144C7.99917 10.9855 8.14997 11.0003 8.28702 11.0571C8.42406 11.1139 8.54119 11.21 8.62361 11.3333C8.70602 11.4567 8.75 11.6017 8.75 11.75C8.75 11.9489 8.67099 12.1397 8.53033 12.2803C8.38968 12.421 8.19892 12.5 8 12.5V12.5ZM8.57105 8.623V9.8737H7.44605V7.5H8.50855C8.82367 7.5 9.12588 7.37482 9.3487 7.152C9.57152 6.92918 9.6967 6.62697 9.6967 6.31185C9.6967 5.99673 9.57152 5.69452 9.3487 5.4717C9.12588 5.24888 8.82367 5.1237 8.50855 5.1237H7.75855C7.44372 5.12406 7.14188 5.24928 6.91926 5.47191C6.69664 5.69453 6.57141 5.99637 6.57105 6.3112V6.63H5.44605V6.31115C5.4468 5.69819 5.69071 5.11057 6.12427 4.67726C6.55783 4.24396 7.14559 4.00038 7.75855 4H8.50855C9.11659 3.99955 9.70033 4.23866 10.1333 4.66553C10.5663 5.0924 10.8137 5.67267 10.822 6.28065C10.8302 6.88863 10.5985 7.47537 10.1772 7.91379C9.75594 8.35221 9.17888 8.60701 8.57105 8.623Z" fill="white"/>
</svg>
