<svg width="16" height="16" viewBox="0 0 16 16" fill="none" xmlns="http://www.w3.org/2000/svg">
<path d="M7.99989 12.0002C7.91711 12.0002 7.83565 11.9796 7.76284 11.9402L1.26284 8.44024L1.73694 7.56024L7.99989 10.9324L14.2628 7.56024L14.7369 8.44059L8.23694 11.9406C8.1641 11.9798 8.08263 12.0003 7.99989 12.0002Z" fill="white"/>
<path d="M7.99989 15.0002C7.91711 15.0002 7.83565 14.9796 7.76284 14.9402L1.26284 11.4402L1.73694 10.5602L7.99989 13.9324L14.2628 10.5602L14.7369 11.4406L8.23694 14.9406C8.1641 14.9798 8.08263 15.0003 7.99989 15.0002Z" fill="white"/>
<path d="M7.99989 9.00024C7.91711 9.00023 7.83565 8.97961 7.76284 8.94024L1.26284 5.44024C1.18338 5.39742 1.11698 5.3339 1.07071 5.2564C1.02443 5.1789 1 5.09032 1 5.00006C1 4.9098 1.02443 4.82122 1.07071 4.74372C1.11698 4.66623 1.18338 4.6027 1.26284 4.55989L7.76284 1.05989C7.83567 1.02058 7.91713 1 7.99989 1C8.08265 1 8.16411 1.02058 8.23694 1.05989L14.7369 4.55989C14.8164 4.6027 14.8828 4.66623 14.9291 4.74372C14.9753 4.82122 14.9998 4.9098 14.9998 5.00006C14.9998 5.09032 14.9753 5.1789 14.9291 5.2564C14.8828 5.3339 14.8164 5.39742 14.7369 5.44024L8.23694 8.94024C8.16413 8.97961 8.08266 9.00023 7.99989 9.00024ZM2.55459 5.00024L7.99989 7.93239L13.4452 5.00024L7.99989 2.06814L2.55459 5.00024Z" fill="white"/>
</svg>
