<svg width="16" height="16" viewBox="0 0 16 16" fill="none" xmlns="http://www.w3.org/2000/svg">
<path d="M14.6243 3.38041C14.3455 3.10073 14.0144 2.87882 13.6497 2.72741C13.2851 2.57599 12.8941 2.49805 12.4993 2.49805C12.1044 2.49805 11.7135 2.57599 11.3488 2.72741C10.9841 2.87882 10.653 3.10073 10.3743 3.38041L11.0843 4.09041C11.2704 3.90426 11.4914 3.7566 11.7346 3.65586C11.9778 3.55512 12.2385 3.50326 12.5018 3.50326C12.765 3.50326 13.0257 3.55512 13.2689 3.65586C13.5121 3.7566 13.7331 3.90426 13.9193 4.09041C14.1054 4.27656 14.2531 4.49755 14.3538 4.74077C14.4545 4.98398 14.5064 5.24466 14.5064 5.50791C14.5064 5.77117 14.4545 6.03184 14.3538 6.27506C14.2531 6.51827 14.1054 6.73926 13.9193 6.92541L9.91925 10.9254C9.54397 11.3014 9.03472 11.5128 8.50352 11.5133C7.97232 11.5138 7.4627 11.3032 7.08675 10.9279C6.71081 10.5526 6.49934 10.0434 6.49887 9.51218C6.4984 8.98098 6.70897 8.47136 7.08425 8.09541L7.78925 7.38541L7.08425 6.67541L6.37425 7.38541C6.09457 7.66412 5.87266 7.9953 5.72125 8.35996C5.56983 8.72461 5.49189 9.11557 5.49189 9.51041C5.49189 9.90525 5.56983 10.2962 5.72125 10.6609C5.87266 11.0255 6.09457 11.3567 6.37425 11.6354C6.94 12.1939 7.70429 12.505 8.49925 12.5004C8.89561 12.502 9.28836 12.4251 9.65482 12.2741C10.0213 12.123 10.3542 11.9009 10.6343 11.6204L14.6343 7.62041C15.1947 7.05659 15.5085 6.29335 15.5066 5.49834C15.5047 4.70334 15.1874 3.94159 14.6243 3.38041Z" fill="white"/>
<path d="M2.09425 12.4104C1.90755 12.2246 1.7594 12.0037 1.6583 11.7604C1.55721 11.5172 1.50517 11.2563 1.50517 10.9929C1.50517 10.7295 1.55721 10.4687 1.6583 10.2254C1.7594 9.98214 1.90755 9.76125 2.09425 9.57541L6.09425 5.57541C6.28009 5.38871 6.50098 5.24056 6.74424 5.13946C6.98749 5.03837 7.24833 4.98633 7.51175 4.98633C7.77518 4.98633 8.03601 5.03837 8.27927 5.13946C8.52253 5.24056 8.74342 5.38871 8.92925 5.57541C9.11478 5.76271 9.26082 5.98535 9.35873 6.23012C9.45664 6.4749 9.50443 6.73683 9.49925 7.00041C9.50078 7.26481 9.44986 7.5269 9.34945 7.77149C9.24903 8.01609 9.10112 8.23835 8.91425 8.42541L7.85425 9.50041L8.56425 10.2104L9.62425 9.15041C10.1885 8.58616 10.5055 7.82088 10.5055 7.02291C10.5055 6.22495 10.1885 5.45966 9.62425 4.89541C9.06 4.33116 8.29472 4.01417 7.49675 4.01417C6.69878 4.01417 5.9335 4.33116 5.36925 4.89541L1.36925 8.89541C1.08882 9.17421 0.866275 9.5057 0.714414 9.87082C0.562553 10.2359 0.484375 10.6275 0.484375 11.0229C0.484375 11.4184 0.562553 11.8099 0.714414 12.175C0.866275 12.5401 1.08882 12.8716 1.36925 13.1504C1.93866 13.7047 2.7047 14.0103 3.49925 14.0004C4.3008 14.0012 5.07011 13.6848 5.63925 13.1204L4.92925 12.4104C4.74342 12.5971 4.52253 12.7453 4.27927 12.8464C4.03601 12.9475 3.77518 12.9995 3.51175 12.9995C3.24833 12.9995 2.98749 12.9475 2.74424 12.8464C2.50098 12.7453 2.28009 12.5971 2.09425 12.4104Z" fill="white"/>
</svg>
