<svg width="16" height="16" viewBox="0 0 16 16" fill="none" xmlns="http://www.w3.org/2000/svg">
<path fill-rule="evenodd" clip-rule="evenodd" d="M3.31731 0C3.14922 0 3.00649 0.123119 2.98183 0.289388L2.55718 3.15218L0.00723146 15.3038C-0.0127444 15.399 0.00911312 15.4982 0.0672503 15.5762C0.125388 15.6542 0.214208 15.7034 0.311143 15.7115L3.77767 15.9987C3.91715 16.0103 4.0494 15.935 4.11064 15.8092L8.02856 7.75868C8.14562 7.96341 8.29044 8.21841 8.45572 8.51051C8.90494 9.30443 9.50363 10.3696 10.1024 11.4372C10.7011 12.5048 11.2997 13.5745 11.7486 14.3773L12.291 15.3477L12.4429 15.6197L12.483 15.6914L12.4932 15.7098L12.4958 15.7144L12.4965 15.7156L12.4966 15.7159C12.4967 15.7159 12.4967 15.716 12.7928 15.5506L12.4967 15.716C12.5603 15.8298 12.6835 15.8972 12.8137 15.8891L15.6817 15.712C15.7801 15.7059 15.8709 15.6574 15.9306 15.579C15.9903 15.5007 16.013 15.4002 15.9928 15.3038L13.4432 3.15382L13.0474 0.292677C13.0242 0.124925 12.8808 0 12.7114 0H3.31731ZM12.8335 3.5511H3.16654L0.74996 15.0672L3.60232 15.3036L7.69504 6.89394L7.69896 6.89584C7.70642 6.87792 7.71448 6.86097 7.72262 6.84701C7.77835 6.7854 7.92253 6.71182 8.00208 6.70281C8.05521 6.70728 8.13676 6.73144 8.16541 6.74566C8.18266 6.75593 8.20991 6.77519 8.22035 6.7837C8.25062 6.80937 8.27062 6.83614 8.27297 6.83929L8.27318 6.83956C8.28434 6.85417 8.29404 6.86907 8.29915 6.87699C8.31168 6.89642 8.32775 6.92277 8.34574 6.95288C8.38253 7.01445 8.43532 7.10506 8.50119 7.2194C8.63325 7.44865 8.8212 7.77906 9.04607 8.17647C9.49595 8.97156 10.0952 10.0377 10.694 11.1055C11.2929 12.1733 11.8916 13.2433 12.3406 14.0463L12.8831 15.0169L12.9849 15.199L15.2483 15.0592L12.8335 3.5511ZM3.28434 2.8728L3.60986 0.678302H12.416L12.7195 2.8728H3.28434Z" fill="white"/>
</svg>
