<svg width="16" height="16" viewBox="0 0 16 16" fill="none" xmlns="http://www.w3.org/2000/svg">
<path d="M13.5006 8.37971C13.5006 8.25471 13.5006 8.12971 13.5006 7.99971C13.5006 7.86971 13.5006 7.74471 13.5006 7.61471L14.4606 6.77471C14.6376 6.61874 14.7537 6.40523 14.7885 6.17192C14.8232 5.9386 14.7744 5.70051 14.6506 5.49971L13.4706 3.49972C13.3829 3.34785 13.2569 3.22171 13.105 3.13395C12.9532 3.04619 12.781 2.99989 12.6056 2.99971C12.4969 2.99888 12.3889 3.01577 12.2856 3.04972L11.0706 3.45972C10.8608 3.32032 10.642 3.19504 10.4156 3.08472L10.1606 1.82472C10.1149 1.59452 9.98966 1.38774 9.80684 1.24057C9.62402 1.0934 9.39527 1.01522 9.16061 1.01971H6.82061C6.58596 1.01522 6.35721 1.0934 6.17439 1.24057C5.99157 1.38774 5.86634 1.59452 5.82061 1.82472L5.56561 3.08472C5.33758 3.19502 5.1171 3.32029 4.90561 3.45972L3.71561 3.02972C3.61126 3.00253 3.5032 2.9924 3.39561 2.99971C3.22025 2.99989 3.04802 3.04619 2.8962 3.13395C2.74437 3.22171 2.6183 3.34785 2.53061 3.49972L1.35061 5.49971C1.23391 5.70021 1.19054 5.93504 1.22794 6.164C1.26534 6.39295 1.38118 6.60178 1.55561 6.75471L2.50061 7.61971C2.50061 7.74471 2.50061 7.86971 2.50061 7.99971C2.50061 8.12971 2.50061 8.25471 2.50061 8.38472L1.55561 9.22472C1.37625 9.37871 1.25724 9.59128 1.21971 9.82469C1.18219 10.0581 1.22856 10.2973 1.35061 10.4997L2.53061 12.4997C2.6183 12.6516 2.74437 12.7777 2.8962 12.8655C3.04802 12.9532 3.22025 12.9995 3.39561 12.9997C3.50429 13.0005 3.61237 12.9837 3.71561 12.9497L4.93061 12.5397C5.14038 12.6791 5.3592 12.8044 5.58561 12.9147L5.84061 14.1747C5.88634 14.4049 6.01157 14.6117 6.19439 14.7589C6.37721 14.906 6.60596 14.9842 6.84061 14.9797H9.20061C9.43527 14.9842 9.66402 14.906 9.84684 14.7589C10.0297 14.6117 10.1549 14.4049 10.2006 14.1747L10.4556 12.9147C10.6836 12.8044 10.9041 12.6791 11.1156 12.5397L12.3256 12.9497C12.4289 12.9837 12.5369 13.0005 12.6456 12.9997C12.821 12.9995 12.9932 12.9532 13.145 12.8655C13.2969 12.7777 13.4229 12.6516 13.5106 12.4997L14.6506 10.4997C14.7673 10.2992 14.8107 10.0644 14.7733 9.83543C14.7359 9.60648 14.6201 9.39765 14.4456 9.24471L13.5006 8.37971ZM12.6056 11.9997L10.8906 11.4197C10.4891 11.7598 10.0303 12.0256 9.53561 12.2047L9.18061 13.9997H6.82061L6.46561 12.2247C5.97483 12.0405 5.51847 11.7751 5.11561 11.4397L3.39561 11.9997L2.21561 9.99971L3.57561 8.79972C3.48316 8.28214 3.48316 7.75229 3.57561 7.23471L2.21561 5.99971L3.39561 3.99972L5.11061 4.57972C5.51208 4.23966 5.97092 3.97384 6.46561 3.79472L6.82061 1.99971H9.18061L9.53561 3.77472C10.0264 3.95893 10.4828 4.22429 10.8856 4.55972L12.6056 3.99972L13.7856 5.99971L12.4256 7.19971C12.5181 7.71729 12.5181 8.24714 12.4256 8.76472L13.7856 9.99971L12.6056 11.9997Z" fill="white"/>
<path d="M8.00061 10.9997C7.40727 10.9997 6.82725 10.8238 6.3339 10.4941C5.84056 10.1645 5.45604 9.69594 5.22898 9.14777C5.00191 8.59959 4.9425 7.99639 5.05826 7.41444C5.17401 6.8325 5.45974 6.29795 5.87929 5.8784C6.29885 5.45884 6.8334 5.17312 7.41534 5.05736C7.99729 4.9416 8.60049 5.00101 9.14866 5.22808C9.69684 5.45514 10.1654 5.83966 10.495 6.333C10.8247 6.82635 11.0006 7.40637 11.0006 7.99972C11.0046 8.3948 10.9298 8.78671 10.7804 9.15249C10.6311 9.51828 10.4103 9.8506 10.1309 10.13C9.8515 10.4094 9.51918 10.6302 9.15339 10.7795C8.78761 10.9289 8.3957 11.0037 8.00061 10.9997ZM8.00061 5.99972C7.73629 5.99356 7.47346 6.04108 7.22802 6.13941C6.98259 6.23774 6.75965 6.38483 6.57269 6.57179C6.38573 6.75875 6.23864 6.98169 6.14031 7.22712C6.04198 7.47256 5.99446 7.73539 6.00061 7.99972C5.99446 8.26404 6.04198 8.52687 6.14031 8.77231C6.23864 9.01774 6.38573 9.24068 6.57269 9.42764C6.75965 9.6146 6.98259 9.76169 7.22802 9.86002C7.47346 9.95835 7.73629 10.0059 8.00061 9.99971C8.26494 10.0059 8.52777 9.95835 8.77321 9.86002C9.01864 9.76169 9.24158 9.6146 9.42854 9.42764C9.6155 9.24068 9.76259 9.01774 9.86092 8.77231C9.95925 8.52687 10.0068 8.26404 10.0006 7.99972C10.0068 7.73539 9.95925 7.47256 9.86092 7.22712C9.76259 6.98169 9.6155 6.75875 9.42854 6.57179C9.24158 6.38483 9.01864 6.23774 8.77321 6.13941C8.52777 6.04108 8.26494 5.99356 8.00061 5.99972Z" fill="white"/>
</svg>
