<svg width="16" height="16" viewBox="0 0 16 16" fill="none" xmlns="http://www.w3.org/2000/svg">
<path d="M9.9998 4H8.9998C8.9998 3.33696 8.7364 2.70107 8.26756 2.23223C7.79872 1.76339 7.16284 1.5 6.4998 1.5C5.83676 1.5 5.20087 1.76339 4.73203 2.23223C4.26319 2.70107 3.9998 3.33696 3.9998 4H2.9998C2.9998 3.07174 3.36855 2.1815 4.02492 1.52513C4.6813 0.868749 5.57154 0.5 6.4998 0.5C7.42805 0.5 8.31829 0.868749 8.97467 1.52513C9.63105 2.1815 9.9998 3.07174 9.9998 4Z" fill="white"/>
<path d="M12.4998 7.5C12.2415 7.50093 11.988 7.56991 11.7648 7.7C11.63 7.48619 11.4434 7.30992 11.2222 7.18754C11.001 7.06516 10.7526 7.00065 10.4998 7C10.2415 7.00093 9.98797 7.06991 9.7648 7.2C9.58289 6.91376 9.30934 6.69762 8.9888 6.58684C8.66825 6.47606 8.31963 6.47717 7.9998 6.59V4C7.9998 3.60218 7.84176 3.22064 7.56046 2.93934C7.27915 2.65804 6.89762 2.5 6.4998 2.5C6.10197 2.5 5.72044 2.65804 5.43914 2.93934C5.15783 3.22064 4.9998 3.60218 4.9998 4V9.55L3.8848 8.79C3.62919 8.59964 3.31849 8.49783 2.9998 8.5C2.70229 8.49927 2.41128 8.58702 2.16377 8.7521C1.91626 8.91719 1.72343 9.15215 1.60981 9.4271C1.49618 9.70206 1.46688 10.0046 1.52564 10.2963C1.5844 10.5879 1.72856 10.8555 1.9398 11.065L5.9398 14.715C6.50609 15.2219 7.2398 15.5015 7.9998 15.5H10.4998C11.4281 15.5 12.3183 15.1313 12.9747 14.4749C13.631 13.8185 13.9998 12.9283 13.9998 12V9C13.9998 8.60218 13.8418 8.22064 13.5605 7.93934C13.2792 7.65804 12.8976 7.5 12.4998 7.5ZM12.9998 12C12.9998 12.663 12.7364 13.2989 12.2676 13.7678C11.7987 14.2366 11.1628 14.5 10.4998 14.5H7.9998C7.4944 14.5061 7.00399 14.3284 6.6198 14L2.6448 10.35C2.55242 10.2569 2.50035 10.1312 2.4998 10C2.4998 9.90714 2.52565 9.81612 2.57447 9.73713C2.62329 9.65815 2.69314 9.59431 2.77619 9.55279C2.85924 9.51126 2.95222 9.49368 3.0447 9.50202C3.13718 9.51036 3.22551 9.54429 3.2998 9.6L5.9998 11.45V4C5.9998 3.86739 6.05247 3.74021 6.14624 3.64645C6.24001 3.55268 6.36719 3.5 6.4998 3.5C6.6324 3.5 6.75958 3.55268 6.85335 3.64645C6.94712 3.74021 6.9998 3.86739 6.9998 4V9.5H7.9998V8C7.9998 7.86739 8.05247 7.74021 8.14624 7.64645C8.24001 7.55268 8.36719 7.5 8.4998 7.5C8.6324 7.5 8.75958 7.55268 8.85335 7.64645C8.94712 7.74021 8.9998 7.86739 8.9998 8V9.5H9.9998V8.5C9.9998 8.36739 10.0525 8.24021 10.1462 8.14645C10.24 8.05268 10.3672 8 10.4998 8C10.6324 8 10.7596 8.05268 10.8534 8.14645C10.9471 8.24021 10.9998 8.36739 10.9998 8.5V9.5H11.9998V9C11.9998 8.86739 12.0525 8.74021 12.1462 8.64645C12.24 8.55268 12.3672 8.5 12.4998 8.5C12.6324 8.5 12.7596 8.55268 12.8534 8.64645C12.9471 8.74021 12.9998 8.86739 12.9998 9V12Z" fill="white"/>
</svg>
