<svg width="16" height="16" viewBox="0 0 16 16" fill="none" xmlns="http://www.w3.org/2000/svg">
<path d="M14.73 4.055C14.6505 4.01704 14.5624 4.00074 14.4746 4.00777C14.3868 4.01479 14.3024 4.04488 14.23 4.095L11.5 6.03V5.22L15 1.72L14.28 1L1 14.28L1.72 15L3.72 13H10.5C10.7652 13 11.0196 12.8946 11.2071 12.7071C11.3946 12.5196 11.5 12.2652 11.5 12V9.97L14.21 11.905C14.2846 11.9581 14.3724 11.9897 14.4638 11.9964C14.5552 12.003 14.6466 11.9844 14.7281 11.9426C14.8096 11.9008 14.8781 11.8375 14.926 11.7594C14.974 11.6813 14.9996 11.5916 15 11.5V4.5C15.0002 4.40819 14.9751 4.31809 14.9275 4.2396C14.8798 4.1611 14.8115 4.09723 14.73 4.055ZM14 10.53L11.29 8.595C11.2154 8.54187 11.1276 8.51025 11.0362 8.50362C10.9448 8.49698 10.8534 8.51557 10.7719 8.55737C10.6904 8.59916 10.6219 8.66254 10.574 8.7406C10.526 8.81866 10.5004 8.90839 10.5 9V12H4.72L10.5 6.22V7C10.5004 7.09161 10.526 7.18134 10.574 7.2594C10.6219 7.33746 10.6904 7.40084 10.7719 7.44263C10.8534 7.48443 10.9448 7.50302 11.0362 7.49638C11.1276 7.48975 11.2154 7.45813 11.29 7.405L14 5.47V10.53Z" fill="white"/>
<path d="M2 12V4H10V3H2C1.73478 3 1.48043 3.10536 1.29289 3.29289C1.10536 3.48043 1 3.73478 1 4V12H2Z" fill="white"/>
</svg>
