<svg width="16" height="16" viewBox="0 0 16 16" fill="none" xmlns="http://www.w3.org/2000/svg">
<path d="M12.9999 15H11.9999V13.5H9.99987C9.33705 13.4993 8.70159 13.2356 8.2329 12.767C7.76422 12.2983 7.50059 11.6628 7.49987 11V10.3603L6.34177 9.97435C6.27074 9.95067 6.20595 9.91134 6.15216 9.85927C6.09836 9.80719 6.05695 9.7437 6.03098 9.67349C6.00501 9.60327 5.99513 9.52812 6.00209 9.45357C6.00905 9.37903 6.03265 9.307 6.07117 9.2428L7.49987 6.86145V5.5C7.50119 4.30693 7.97572 3.16311 8.81935 2.31948C9.66297 1.47585 10.8068 1.00132 11.9999 1H14.4999V2H11.9999C11.0719 2.00103 10.1823 2.37011 9.52613 3.02627C8.86998 3.68242 8.5009 4.57206 8.49987 5.5V7C8.49987 7.09061 8.47522 7.17952 8.42857 7.2572L7.24927 9.2228L8.15797 9.52565C8.25753 9.55883 8.34412 9.6225 8.40548 9.70764C8.46685 9.79277 8.49987 9.89506 8.49987 10V11C8.5003 11.3977 8.65848 11.779 8.93969 12.0602C9.2209 12.3414 9.60218 12.4996 9.99987 12.5H12.4999C12.6325 12.5 12.7597 12.5527 12.8534 12.6464C12.9472 12.7402 12.9999 12.8674 12.9999 13V15Z" fill="white"/>
<path d="M11.4999 6H9.49987V7H11.4999V6Z" fill="white"/>
<path d="M4.66612 12.6084C4.2992 12.2801 4.00567 11.878 3.80471 11.4286C3.60375 10.9791 3.49987 10.4922 3.49987 9.99988C3.49987 9.50751 3.60375 9.02068 3.80471 8.57119C4.00567 8.1217 4.2992 7.71967 4.66612 7.39135L5.33312 8.13635C5.07093 8.37084 4.86118 8.65803 4.71758 8.97913C4.57397 9.30023 4.49974 9.64802 4.49974 9.99977C4.49974 10.3515 4.57397 10.6993 4.71758 11.0204C4.86118 11.3415 5.07093 11.6287 5.33312 11.8632L4.66612 12.6084Z" fill="white"/>
<path d="M3.19957 14.4004C2.5166 13.888 1.96229 13.2236 1.58052 12.4599C1.19875 11.6962 1 10.8541 1 10.0002C1 9.14643 1.19875 8.30432 1.58052 7.54061C1.96229 6.77689 2.5166 6.11252 3.19957 5.6001L3.79987 6.4C3.24093 6.8192 2.78728 7.36279 2.47482 7.9877C2.16237 8.61261 1.9997 9.30168 1.9997 10.0003C1.9997 10.699 2.16237 11.3881 2.47482 12.013C2.78728 12.6379 3.24093 13.1815 3.79987 13.6007L3.19957 14.4004Z" fill="white"/>
</svg>
