<svg width="14" height="12" viewBox="0 0 14 12" fill="none" xmlns="http://www.w3.org/2000/svg">
<mask id="mask0_522_9298" style="mask-type:alpha" maskUnits="userSpaceOnUse" x="0" y="0" width="14" height="12">
<rect x="1" width="12.0333" height="11.9666" transform="rotate(0.159129 1 0)" fill="#D9D9D9"/>
</mask>
<g mask="url(#mask0_522_9298)">
<path d="M6.9966 6.9793L8.90468 8.89803C9.03451 9.02858 9.1972 9.09346 9.39274 9.09268C9.58826 9.09189 9.75131 9.02659 9.88187 8.89676C10.0124 8.76692 10.078 8.60424 10.0785 8.4087C10.079 8.21318 10.0144 8.05014 9.88458 7.91958L7.97647 6.00486L9.8952 4.09678C10.0257 3.96694 10.0913 3.80425 10.0918 3.60872C10.0924 3.4132 10.0277 3.25016 9.89791 3.1196C9.76807 2.98905 9.60539 2.9235 9.40987 2.92296C9.21434 2.92242 9.05129 2.98706 8.92073 3.11688L7.00203 5.02498L5.09395 3.10626C4.96411 2.97571 4.80209 2.91016 4.60789 2.90962C4.41369 2.90908 4.25131 2.97373 4.12075 3.10355C3.9902 3.23339 3.92465 3.39607 3.92411 3.59159C3.92357 3.78712 3.98821 3.95017 4.11804 4.08073L6.02215 5.99943L4.10343 7.90751C3.97288 8.03734 3.90799 8.19936 3.90878 8.39357C3.90957 8.58777 3.97488 8.75015 4.10471 8.88071C4.23454 9.01126 4.39723 9.07681 4.59276 9.07735C4.78828 9.0779 4.95132 9.01325 5.08189 8.88343L6.9966 6.9793ZM2.36346 12.1248C1.94365 12.1236 1.58633 11.9748 1.29149 11.6783C0.996659 11.3819 0.849825 11.0237 0.850991 10.6039L0.876647 1.36629C0.877813 0.946477 1.02663 0.589156 1.32311 0.294323C1.61958 -0.000510478 1.97773 -0.147344 2.39754 -0.146178L11.6352 -0.120522C12.055 -0.119356 12.4123 0.0294645 12.7071 0.32594C13.002 0.622416 13.1488 0.980557 13.1476 1.40037L13.122 10.638C13.1208 11.0578 12.972 11.4151 12.6755 11.71C12.379 12.0048 12.0209 12.1516 11.6011 12.1505L2.36346 12.1248Z" fill="#FA4D56"/>
</g>
</svg>
