<svg width="25" height="25" viewBox="0 0 25 25" fill="none" xmlns="http://www.w3.org/2000/svg">
<mask id="mask0_522_9357" style="mask-type:alpha" maskUnits="userSpaceOnUse" x="0" y="0" width="25" height="25">
<rect x="0.166016" y="0.628906" width="24" height="24" fill="#D9D9D9"/>
</mask>
<g mask="url(#mask0_522_9357)">
<path d="M4.94487 20.0295H6.6314L15.7661 10.8949L14.0795 9.2083L4.94487 18.343V20.0295ZM19.8737 9.81025L15.1487 5.06608L16.4122 3.80262C16.8327 3.38212 17.3449 3.17188 17.9487 3.17188C18.5526 3.17188 19.0647 3.38212 19.4852 3.80262L21.1717 5.51415C21.5923 5.93465 21.7993 6.43753 21.7929 7.02278C21.7865 7.60803 21.573 8.1109 21.1525 8.5314L19.8737 9.81025ZM3.99875 22.1795C3.65773 22.1795 3.37184 22.0641 3.14107 21.8333C2.91031 21.6025 2.79492 21.3166 2.79492 20.9756V17.9314C2.79492 17.7609 2.82088 17.6087 2.8728 17.4747C2.92471 17.3407 3.01414 17.2103 3.14107 17.0834L14.0891 6.13528L18.8141 10.8602L7.891 21.8333C7.76408 21.9602 7.63364 22.0497 7.49967 22.1016C7.36569 22.1535 7.21344 22.1795 7.04292 22.1795H3.99875Z" fill="white"/>
</g>
</svg>
