<svg width="24" height="25" viewBox="0 0 24 25" fill="none" xmlns="http://www.w3.org/2000/svg">
<mask id="mask0_522_9369" style="mask-type:alpha" maskUnits="userSpaceOnUse" x="0" y="0" width="24" height="25">
<rect y="0.628906" width="24" height="24" fill="#D9D9D9"/>
</mask>
<g mask="url(#mask0_522_9369)">
<path d="M12.0254 14.1325L7.07731 19.1055C6.85553 19.3273 6.59816 19.4357 6.30521 19.4305C6.01228 19.4254 5.75171 19.3088 5.52351 19.0806C5.31196 18.8524 5.21035 18.6017 5.21868 18.3286C5.22702 18.0556 5.33696 17.8049 5.54851 17.5767L10.4716 12.6286L5.52351 7.63055C5.31838 7.40877 5.21421 7.15973 5.21101 6.88345C5.20779 6.60718 5.31196 6.35495 5.52351 6.12675C5.75171 5.89853 6.01068 5.78026 6.30041 5.77192C6.59014 5.76359 6.84911 5.87353 7.07731 6.10175L12.0254 11.0748L16.9235 6.10175C17.1453 5.87995 17.4027 5.77162 17.6956 5.77675C17.9885 5.78187 18.2491 5.89853 18.4773 6.12675C18.6889 6.35495 18.7905 6.60558 18.7821 6.87865C18.7738 7.15172 18.6639 7.40235 18.4523 7.63055L13.5292 12.6286L18.4523 17.5767C18.6574 17.7819 18.7658 18.0267 18.7773 18.3113C18.7889 18.5959 18.6889 18.8524 18.4773 19.0806C18.2491 19.3088 17.9901 19.427 17.7004 19.4354C17.4107 19.4437 17.1517 19.3338 16.9235 19.1055L12.0254 14.1325Z" fill="white"/>
</g>
</svg>
