<svg width="34" height="32" viewBox="0 0 34 32" fill="none" xmlns="http://www.w3.org/2000/svg">
<path d="M16.8174 10C16.0757 10 15.3507 10.2199 14.734 10.632C14.1173 11.044 13.6367 11.6297 13.3528 12.3149C13.069 13.0002 12.9947 13.7542 13.1394 14.4816C13.2841 15.209 13.6413 15.8772 14.1657 16.4017C14.6902 16.9261 15.3584 17.2833 16.0858 17.4279C16.8132 17.5726 17.5672 17.4984 18.2525 17.2145C18.9377 16.9307 19.5233 16.4501 19.9354 15.8334C20.3475 15.2167 20.5674 14.4917 20.5674 13.75C20.5674 12.7554 20.1723 11.8016 19.469 11.0983C18.7658 10.3951 17.8119 10 16.8174 10ZM16.8174 16C16.3724 16 15.9374 15.868 15.5674 15.6208C15.1973 15.3736 14.909 15.0222 14.7387 14.611C14.5684 14.1999 14.5238 13.7475 14.6106 13.311C14.6974 12.8746 14.9117 12.4737 15.2264 12.159C15.5411 11.8443 15.942 11.63 16.3784 11.5432C16.8149 11.4564 17.2673 11.501 17.6784 11.6713C18.0896 11.8416 18.441 12.13 18.6882 12.5C18.9354 12.87 19.0674 13.305 19.0674 13.75C19.0667 14.3465 18.8294 14.9184 18.4076 15.3402C17.9858 15.7621 17.4139 15.9993 16.8174 16Z" fill="#A56EFF"/>
<path d="M16.8174 5.5C14.7407 5.5 12.7106 6.11581 10.9839 7.26957C9.25718 8.42332 7.91137 10.0632 7.11665 11.9818C6.32193 13.9004 6.114 16.0116 6.51914 18.0484C6.92429 20.0852 7.92431 21.9562 9.39277 23.4246C10.8612 24.8931 12.7321 25.8931 14.7689 26.2982C16.8057 26.7034 18.9169 26.4955 20.8356 25.7007C22.7542 24.906 24.3941 23.5602 25.5478 21.8335C26.7016 20.1068 27.3174 18.0767 27.3174 16C27.3143 13.2162 26.207 10.5473 24.2385 8.57884C22.2701 6.61039 19.6012 5.50314 16.8174 5.5ZM12.3174 23.7824V22.75C12.318 22.1535 12.5553 21.5815 12.9771 21.1597C13.3989 20.7379 13.9709 20.5007 14.5674 20.5H19.0674C19.6639 20.5007 20.2358 20.7379 20.6577 21.1597C21.0795 21.5815 21.3167 22.1535 21.3174 22.75V23.7824C19.9518 24.5798 18.3988 25 16.8174 25C15.236 25 13.683 24.5798 12.3174 23.7824ZM22.8118 22.6944C22.7969 21.7105 22.396 20.772 21.6956 20.0809C20.9952 19.3899 20.0513 19.0017 19.0674 19H14.5674C13.5835 19.0017 12.6396 19.3899 11.9392 20.0809C11.2388 20.772 10.8379 21.7105 10.823 22.6944C9.46293 21.4799 8.50381 19.881 8.07264 18.1093C7.64147 16.3377 7.75859 14.4769 8.40849 12.7732C9.0584 11.0696 10.2104 9.6036 11.712 8.56927C13.2137 7.53495 14.994 6.98112 16.8174 6.98112C18.6408 6.98112 20.4211 7.53495 21.9227 8.56927C23.4243 9.6036 24.5764 11.0696 25.2263 12.7732C25.8762 14.4769 25.9933 16.3377 25.5621 18.1093C25.131 19.881 24.1718 21.4799 22.8118 22.6944Z" fill="#A56EFF"/>
</svg>
