<svg width="16" height="16" viewBox="0 0 16 16" fill="none" xmlns="http://www.w3.org/2000/svg">
<path d="M5.5 1H1V5.5H2V2H5.5V1Z" fill="#C1C7CD"/>
<path d="M1 10.5V15H5.5V14H2V10.5H1Z" fill="#C1C7CD"/>
<path d="M15 5.5V1H10.5V2H14V5.5H15Z" fill="#C1C7CD"/>
<path d="M10.5 15H15V10.5H14V14H10.5V15Z" fill="#C1C7CD"/>
<path d="M12.745 5.065L8.245 2.565C8.16899 2.52112 8.08277 2.49801 7.995 2.49801C7.90723 2.49801 7.82101 2.52112 7.745 2.565L3.245 5.065C3.16963 5.10968 3.10732 5.17339 3.06432 5.24973C3.02132 5.32608 2.99914 5.41238 3 5.5V10.5C3.00015 10.5886 3.02384 10.6756 3.06865 10.752C3.11346 10.8284 3.17777 10.8916 3.255 10.935L7.755 13.435C7.83101 13.4789 7.91723 13.502 8.005 13.502C8.09277 13.502 8.17899 13.4789 8.255 13.435L12.755 10.935C12.8304 10.8903 12.8927 10.8266 12.9357 10.7503C12.9787 10.6739 13.0009 10.5876 13 10.5V5.5C12.9998 5.4114 12.9762 5.32444 12.9313 5.248C12.8865 5.17157 12.8222 5.10841 12.745 5.065ZM8 3.57L11.47 5.5L8 7.43L4.53 5.5L8 3.57ZM4 6.35L7.5 8.295V12.15L4 10.205V6.35ZM8.5 12.15V8.295L12 6.35V10.205L8.5 12.15Z" fill="#C1C7CD"/>
</svg>
