<svg width="16" height="16" viewBox="0 0 16 16" fill="none" xmlns="http://www.w3.org/2000/svg">
<path d="M14.5 13H1.5C1.36739 13 1.24021 12.9473 1.14645 12.8536C1.05268 12.7598 1 12.6326 1 12.5V4C1 3.86739 1.05268 3.74021 1.14645 3.64645C1.24021 3.55268 1.36739 3.5 1.5 3.5H4.73L5.585 2.225C5.63029 2.15622 5.69188 2.09969 5.76427 2.06044C5.83667 2.02119 5.91765 2.00043 6 2H10C10.0824 2.00043 10.1633 2.02119 10.2357 2.06044C10.3081 2.09969 10.3697 2.15622 10.415 2.225L11.27 3.5H14.5C14.6326 3.5 14.7598 3.55268 14.8536 3.64645C14.9473 3.74021 15 3.86739 15 4V12.5C15 12.6326 14.9473 12.7598 14.8536 12.8536C14.7598 12.9473 14.6326 13 14.5 13ZM2 12H14V4.5H11C10.9176 4.49957 10.8367 4.47881 10.7643 4.43956C10.6919 4.40031 10.6303 4.34378 10.585 4.275L9.73 3H6.27L5.415 4.275C5.36971 4.34378 5.30812 4.40031 5.23573 4.43956C5.16333 4.47881 5.08235 4.49957 5 4.5H2V12Z" fill="#C1C7CD"/>
<path d="M8 11C7.40666 11 6.82664 10.8241 6.33329 10.4944C5.83994 10.1648 5.45542 9.69623 5.22836 9.14805C5.0013 8.59987 4.94189 7.99667 5.05764 7.41473C5.1734 6.83279 5.45912 6.29824 5.87868 5.87868C6.29824 5.45912 6.83279 5.1734 7.41473 5.05764C7.99667 4.94189 8.59987 5.0013 9.14805 5.22836C9.69623 5.45542 10.1648 5.83994 10.4944 6.33329C10.8241 6.82664 11 7.40666 11 8C11 8.79565 10.6839 9.55871 10.1213 10.1213C9.55871 10.6839 8.79565 11 8 11ZM8 6C7.60444 6 7.21776 6.1173 6.88886 6.33706C6.55996 6.55682 6.30362 6.86918 6.15224 7.23463C6.00087 7.60009 5.96126 8.00222 6.03843 8.39018C6.1156 8.77814 6.30608 9.13451 6.58579 9.41421C6.86549 9.69392 7.22186 9.8844 7.60982 9.96157C7.99778 10.0387 8.39991 9.99913 8.76537 9.84776C9.13082 9.69638 9.44318 9.44004 9.66294 9.11114C9.8827 8.78224 10 8.39556 10 8C10 7.46957 9.78929 6.96086 9.41421 6.58579C9.03914 6.21071 8.53043 6 8 6Z" fill="#C1C7CD"/>
</svg>
