<svg width="24" height="24" viewBox="0 0 24 24" fill="none" xmlns="http://www.w3.org/2000/svg">
<path d="M12 1.5C9.9233 1.5 7.89323 2.11581 6.16652 3.26957C4.4398 4.42332 3.09399 6.0632 2.29927 7.98182C1.50455 9.90045 1.29661 12.0116 1.70176 14.0484C2.1069 16.0852 3.10693 17.9562 4.57538 19.4246C6.04383 20.8931 7.91476 21.8931 9.95156 22.2982C11.9884 22.7034 14.0996 22.4955 16.0182 21.7007C17.9368 20.906 19.5767 19.5602 20.7304 17.8335C21.8842 16.1068 22.5 14.0767 22.5 12C22.5 9.21523 21.3938 6.54451 19.4246 4.57538C17.4555 2.60625 14.7848 1.5 12 1.5V1.5ZM12 18.75C11.7775 18.75 11.56 18.684 11.375 18.5604C11.19 18.4368 11.0458 18.2611 10.9606 18.0555C10.8755 17.85 10.8532 17.6238 10.8966 17.4055C10.94 17.1873 11.0472 16.9868 11.2045 16.8295C11.3618 16.6722 11.5623 16.565 11.7805 16.5216C11.9988 16.4782 12.225 16.5005 12.4305 16.5856C12.6361 16.6708 12.8118 16.815 12.9354 17C13.059 17.185 13.125 17.4025 13.125 17.625C13.125 17.9234 13.0065 18.2095 12.7955 18.4205C12.5845 18.6315 12.2984 18.75 12 18.75V18.75ZM12.8566 12.9345V14.8106H11.1691V11.25H12.7628C13.2355 11.25 13.6888 11.0622 14.0231 10.728C14.3573 10.3938 14.5451 9.94045 14.5451 9.46778C14.5451 8.9951 14.3573 8.54178 14.0231 8.20755C13.6888 7.87332 13.2355 7.68555 12.7628 7.68555H11.6378C11.1656 7.68609 10.7128 7.87392 10.3789 8.20786C10.045 8.54179 9.85712 8.99455 9.85658 9.4668V9.945H8.16908V9.46673C8.17019 8.54728 8.53607 7.66585 9.1864 7.01589C9.83674 6.36594 10.7184 6.00058 11.6378 6H12.7628C13.6749 5.99933 14.5505 6.35798 15.2 6.99829C15.8495 7.6386 16.2206 8.509 16.2329 9.42097C16.2453 10.3329 15.8978 11.2131 15.2659 11.8707C14.6339 12.5283 13.7683 12.9105 12.8566 12.9345Z" fill="#4D5358"/>
</svg>
