<svg width="40" height="40" viewBox="0 0 40 40" fill="none" xmlns="http://www.w3.org/2000/svg">
<rect width="40" height="40" rx="20" fill="white" fill-opacity="0.9"/>
<path d="M24.3002 13.3333C24.7856 13.3329 25.2661 13.4294 25.7138 13.6172C26.1614 13.8049 26.567 14.0801 26.9068 14.4267C27.6071 15.1376 27.9997 16.0954 27.9997 17.0933C27.9997 18.0912 27.6071 19.0491 26.9068 19.76L20.0002 26.7533L13.0935 19.76C12.3932 19.0491 12.0007 18.0912 12.0007 17.0933C12.0007 16.0954 12.3932 15.1376 13.0935 14.4267C13.4336 14.0804 13.8392 13.8053 14.2868 13.6175C14.7343 13.4298 15.2148 13.333 15.7002 13.333C16.1855 13.333 16.666 13.4298 17.1136 13.6175C17.5611 13.8053 17.9668 14.0804 18.3068 14.4267L20.0002 16.16L21.6868 14.44C22.0257 14.0893 22.4317 13.8106 22.8808 13.6204C23.3298 13.4303 23.8125 13.3326 24.3002 13.3333ZM24.3002 12C23.6373 11.9994 22.9809 12.1312 22.3696 12.3877C21.7583 12.6441 21.2043 13.02 20.7402 13.4933L20.0002 14.24L19.2602 13.4933C18.7955 13.0209 18.2414 12.6456 17.6302 12.3895C17.019 12.1333 16.3629 12.0014 15.7002 12.0014C15.0375 12.0014 14.3814 12.1333 13.7702 12.3895C13.159 12.6456 12.6049 13.0209 12.1402 13.4933C11.1948 14.4558 10.665 15.7509 10.665 17.1C10.665 18.4491 11.1948 19.7443 12.1402 20.7067L20.0002 28.6667L27.8602 20.7067C28.8056 19.7443 29.3353 18.4491 29.3353 17.1C29.3353 15.7509 28.8056 14.4558 27.8602 13.4933C27.3956 13.0206 26.8415 12.6451 26.2303 12.3887C25.6191 12.1323 24.963 12.0002 24.3002 12Z" fill="#A56EFF"/>
</svg>
