<svg width="16" height="16" viewBox="0 0 16 16" fill="none" xmlns="http://www.w3.org/2000/svg">
<path d="M14.6252 3.38041C14.3465 3.10073 14.0153 2.87882 13.6507 2.72741C13.286 2.57599 12.8951 2.49805 12.5002 2.49805C12.1054 2.49805 11.7144 2.57599 11.3498 2.72741C10.9851 2.87882 10.6539 3.10073 10.3752 3.38041L11.0852 4.09041C11.2714 3.90426 11.4924 3.7566 11.7356 3.65586C11.9788 3.55512 12.2395 3.50326 12.5027 3.50326C12.766 3.50326 13.0267 3.55512 13.2699 3.65586C13.5131 3.7566 13.7341 3.90426 13.9202 4.09041C14.1064 4.27656 14.254 4.49755 14.3548 4.74077C14.4555 4.98398 14.5074 5.24466 14.5074 5.50791C14.5074 5.77117 14.4555 6.03184 14.3548 6.27506C14.254 6.51827 14.1064 6.73926 13.9202 6.92541L9.92023 10.9254C9.54495 11.3014 9.03569 11.5128 8.5045 11.5133C7.9733 11.5138 7.46367 11.3032 7.08773 10.9279C6.71178 10.5526 6.50032 10.0434 6.49985 9.51218C6.49938 8.98098 6.70995 8.47136 7.08523 8.09541L7.79023 7.38541L7.08523 6.67541L6.37523 7.38541C6.09555 7.66412 5.87364 7.9953 5.72222 8.35996C5.57081 8.72461 5.49286 9.11557 5.49286 9.51041C5.49286 9.90525 5.57081 10.2962 5.72222 10.6609C5.87364 11.0255 6.09555 11.3567 6.37523 11.6354C6.94097 12.1939 7.70527 12.505 8.50023 12.5004C8.89659 12.502 9.28934 12.4251 9.65579 12.2741C10.0222 12.123 10.3551 11.9009 10.6352 11.6204L14.6352 7.62041C15.1957 7.05659 15.5095 6.29335 15.5076 5.49834C15.5057 4.70334 15.1884 3.94159 14.6252 3.38041Z" fill="#C1C7CD"/>
<path d="M2.09523 12.4104C1.90853 12.2246 1.76037 12.0037 1.65928 11.7604C1.55819 11.5172 1.50615 11.2563 1.50615 10.9929C1.50615 10.7295 1.55819 10.4687 1.65928 10.2254C1.76037 9.98214 1.90853 9.76125 2.09523 9.57541L6.09523 5.57541C6.28107 5.38871 6.50196 5.24056 6.74521 5.13946C6.98847 5.03837 7.2493 4.98633 7.51273 4.98633C7.77616 4.98633 8.03699 5.03837 8.28024 5.13946C8.5235 5.24056 8.74439 5.38871 8.93023 5.57541C9.11575 5.76271 9.2618 5.98535 9.35971 6.23012C9.45762 6.4749 9.5054 6.73683 9.50023 7.00041C9.50175 7.26481 9.45084 7.5269 9.35042 7.77149C9.25001 8.01609 9.10209 8.23835 8.91523 8.42541L7.85523 9.50041L8.56523 10.2104L9.62523 9.15041C10.1895 8.58616 10.5065 7.82088 10.5065 7.02291C10.5065 6.22495 10.1895 5.45966 9.62523 4.89541C9.06098 4.33116 8.2957 4.01417 7.49773 4.01417C6.69976 4.01417 5.93448 4.33116 5.37023 4.89541L1.37023 8.89541C1.0898 9.17421 0.867251 9.5057 0.715391 9.87082C0.56353 10.2359 0.485352 10.6275 0.485352 11.0229C0.485352 11.4184 0.56353 11.8099 0.715391 12.175C0.867251 12.5401 1.0898 12.8716 1.37023 13.1504C1.93964 13.7047 2.70568 14.0103 3.50023 14.0004C4.30178 14.0012 5.07109 13.6848 5.64023 13.1204L4.93023 12.4104C4.74439 12.5971 4.5235 12.7453 4.28024 12.8464C4.03699 12.9475 3.77616 12.9995 3.51273 12.9995C3.2493 12.9995 2.98847 12.9475 2.74521 12.8464C2.50196 12.7453 2.28107 12.5971 2.09523 12.4104Z" fill="#C1C7CD"/>
</svg>
