<svg width="16" height="16" viewBox="0 0 16 16" fill="none" xmlns="http://www.w3.org/2000/svg">
<path d="M11.5008 10.0001C11.1266 10.002 10.7575 10.0879 10.4209 10.2514C10.0842 10.415 9.78861 10.652 9.55582 10.9451L5.90082 8.6601C6.03403 8.23018 6.03403 7.77002 5.90082 7.3401L9.55582 5.0551C9.9268 5.51446 10.4484 5.82769 11.0282 5.93931C11.608 6.05092 12.2086 5.95372 12.7236 5.66491C13.2386 5.37611 13.6347 4.91435 13.8419 4.36143C14.049 3.8085 14.0538 3.20011 13.8553 2.64402C13.6568 2.08793 13.2679 1.62003 12.7575 1.32322C12.2471 1.0264 11.6481 0.919827 11.0666 1.02237C10.4851 1.12491 9.95871 1.42996 9.5806 1.88346C9.2025 2.33697 8.99711 2.90966 9.00082 3.5001C9.00318 3.72369 9.03685 3.94585 9.10082 4.1601L5.44582 6.4451C5.12315 6.03889 4.68209 5.74313 4.1838 5.5988C3.68551 5.45447 3.15466 5.46873 2.66483 5.63961C2.17501 5.81048 1.75047 6.1295 1.45007 6.55245C1.14967 6.9754 0.988281 7.48133 0.988281 8.0001C0.988281 8.51888 1.14967 9.0248 1.45007 9.44775C1.75047 9.8707 2.17501 10.1897 2.66483 10.3606C3.15466 10.5315 3.68551 10.5457 4.1838 10.4014C4.68209 10.2571 5.12315 9.96131 5.44582 9.5551L9.10082 11.8401C9.03685 12.0544 9.00318 12.2765 9.00082 12.5001C9.00082 12.9946 9.14745 13.4779 9.42215 13.889C9.69685 14.3002 10.0873 14.6206 10.5441 14.8098C11.0009 14.999 11.5036 15.0485 11.9886 14.9521C12.4735 14.8556 12.919 14.6175 13.2686 14.2679C13.6182 13.9182 13.8563 13.4728 13.9528 12.9878C14.0493 12.5029 13.9997 12.0002 13.8105 11.5434C13.6213 11.0866 13.3009 10.6961 12.8897 10.4214C12.4786 10.1467 11.9953 10.0001 11.5008 10.0001ZM11.5008 2.0001C11.7975 2.0001 12.0875 2.08808 12.3342 2.2529C12.5809 2.41772 12.7731 2.65199 12.8866 2.92608C13.0002 3.20017 13.0299 3.50177 12.972 3.79274C12.9141 4.08371 12.7713 4.35098 12.5615 4.56076C12.3517 4.77054 12.0844 4.9134 11.7935 4.97128C11.5025 5.02916 11.2009 4.99945 10.9268 4.88592C10.6527 4.77239 10.4184 4.58013 10.2536 4.33346C10.0888 4.08678 10.0008 3.79677 10.0008 3.5001C10.0008 3.10228 10.1589 2.72075 10.4402 2.43944C10.7215 2.15814 11.103 2.0001 11.5008 2.0001ZM3.50082 9.5001C3.20415 9.5001 2.91414 9.41213 2.66747 9.24731C2.4208 9.08248 2.22854 8.84822 2.11501 8.57413C2.00147 8.30004 1.97177 7.99844 2.02965 7.70747C2.08752 7.4165 2.23039 7.14922 2.44016 6.93944C2.64994 6.72966 2.91722 6.5868 3.20819 6.52892C3.49916 6.47105 3.80076 6.50075 4.07485 6.61428C4.34894 6.72781 4.58321 6.92007 4.74803 7.16675C4.91285 7.41342 5.00082 7.70343 5.00082 8.0001C5.00082 8.39793 4.84279 8.77946 4.56148 9.06076C4.28018 9.34207 3.89865 9.5001 3.50082 9.5001ZM11.5008 14.0001C11.2042 14.0001 10.9141 13.9121 10.6675 13.7473C10.4208 13.5825 10.2285 13.3482 10.115 13.0741C10.0015 12.8 9.97177 12.4984 10.0296 12.2075C10.0875 11.9165 10.2304 11.6492 10.4402 11.4394C10.6499 11.2297 10.9172 11.0868 11.2082 11.0289C11.4992 10.971 11.8008 11.0008 12.0748 11.1143C12.3489 11.2278 12.5832 11.4201 12.748 11.6667C12.9129 11.9134 13.0008 12.2034 13.0008 12.5001C13.0008 12.8979 12.8428 13.2795 12.5615 13.5608C12.2802 13.8421 11.8986 14.0001 11.5008 14.0001Z" fill="#A56EFF"/>
</svg>
