<svg width="16" height="17" viewBox="0 0 16 17" fill="none" xmlns="http://www.w3.org/2000/svg">
<path fill-rule="evenodd" clip-rule="evenodd" d="M7.37457 3.00044C7.47042 2.99553 7.56387 3.03147 7.63173 3.09933L7.63652 3.10412C7.66253 3.13013 7.68414 3.1602 7.70049 3.19314L8.03043 3.8578L8.03067 3.85828C8.08528 3.96747 8.14359 4.07415 8.20545 4.1782L8.835 3.68532L9.25315 4.21941L8.5915 4.73742C8.78677 4.98284 9.00426 5.20897 9.24114 5.4139C9.25739 5.42782 9.27374 5.4416 9.29019 5.45525L9.99267 4.73051L10.4797 5.2026L9.85339 5.84879C10.408 6.17383 11.0369 6.38195 11.6891 6.49015L11.6896 6.49024L13.392 6.76681C14.4611 6.90309 15.1329 7.41899 15.5222 8.10816C15.9004 8.77755 15.9952 9.57948 15.9952 10.277C15.9952 10.3449 15.9752 10.4082 15.9408 10.4613H16V13.1043C16 13.2916 15.8482 13.4434 15.6608 13.4434H7.03761C5.85172 13.4434 5.08084 13.1321 4.13513 12.7262L3.11411 13.3888C3.05914 13.4245 2.99501 13.4434 2.92948 13.4434H0.339152C0.151844 13.4434 0 13.2916 0 13.1043V10.4613H0.054469C0.016581 10.4028 -0.00265282 10.3335 0.000294821 10.2628L0.258848 4.06237C0.263585 3.94877 0.324933 3.8451 0.422233 3.78628C0.519533 3.72745 0.639838 3.72129 0.742635 3.76988L3.1674 4.91595C4.302 5.22224 5.5295 4.9395 6.31739 4.12161L6.32339 4.11434L6.33119 4.10541L6.33404 4.10184L7.12886 3.12509C7.18944 3.05065 7.27872 3.00535 7.37457 3.00044ZM0.678304 10.6161V12.7651H2.82907L3.91791 12.0585C4.01292 11.9968 4.13244 11.9867 4.23649 12.0314L4.25469 12.0392C5.26962 12.4756 5.94313 12.7651 7.03761 12.7651H15.3217V10.6161H0.678304ZM8.79913 5.92841L8.81689 5.94355L8.35427 6.42083L8.84133 6.89292L9.36928 6.34823C9.76273 6.59628 10.1868 6.78754 10.6251 6.92923C10.5024 7.07634 10.3694 7.25313 10.2391 7.45848C9.86351 8.05058 9.50583 8.88937 9.49645 9.93782H0.692742L0.915252 4.60172L2.90425 5.54183C2.92161 5.55003 2.93965 5.55675 2.95815 5.56191C4.31793 5.94078 5.83634 5.61402 6.82397 4.5733C6.83095 4.56594 6.83759 4.55828 6.84388 4.55034L6.85167 4.54141C6.85725 4.53481 6.86365 4.52682 6.87038 4.51742L7.32392 3.96006L7.4233 4.16027L7.42374 4.16114C7.49892 4.3115 7.58028 4.45765 7.66749 4.59937L6.98077 5.13701L7.39891 5.6711L8.05739 5.15557C8.28 5.43589 8.528 5.69393 8.79799 5.92743L8.79913 5.92841ZM15.3081 9.93782H10.1401C10.1497 9.06927 10.4453 8.3708 10.7668 7.86398C10.9543 7.56827 11.149 7.34091 11.2961 7.18822C11.3199 7.16354 11.3424 7.14087 11.3633 7.12022C11.435 7.13443 11.5068 7.14748 11.5786 7.1594L11.5797 7.15958L13.2891 7.43728L13.3011 7.43902C14.1675 7.54812 14.6502 7.94368 14.9316 8.44181C15.1742 8.87115 15.279 9.39892 15.3081 9.93782Z" fill="#C1C7CD"/>
</svg>
