<svg width="16" height="16" viewBox="0 0 16 16" fill="none" xmlns="http://www.w3.org/2000/svg">
<path d="M11.295 9.705L13.085 11.5H9.775L7.59 8L9.775 4.5H13.085L11.295 6.295L12 7L15 4L12 1L11.295 1.705L13.085 3.5H9.775C9.6059 3.50051 9.4397 3.54389 9.29192 3.62608C9.14414 3.70828 9.01962 3.8266 8.93 3.97L7 7.055L5.07 3.97C4.98038 3.8266 4.85586 3.70828 4.70808 3.62608C4.5603 3.54389 4.3941 3.50051 4.225 3.5H1V4.5H4.225L6.41 8L4.225 11.5H1V12.5H4.225C4.3941 12.4995 4.5603 12.4561 4.70808 12.3739C4.85586 12.2917 4.98038 12.1734 5.07 12.03L7 8.945L8.93 12.03C9.01962 12.1734 9.14414 12.2917 9.29192 12.3739C9.4397 12.4561 9.6059 12.4995 9.775 12.5H13.085L11.295 14.295L12 15L15 12L12 9L11.295 9.705Z" fill="#C1C7CD"/>
</svg>
