<svg width="16" height="16" viewBox="0 0 16 16" fill="none" xmlns="http://www.w3.org/2000/svg">
<path d="M13.58 4.0393L12.815 4.6843C13.6009 5.61527 14.0199 6.80116 13.9932 8.01922C13.9665 9.23727 13.496 10.4037 12.67 11.2993L13.405 11.9993C14.3968 10.9245 14.962 9.52453 14.9942 8.0624C15.0264 6.60028 14.5235 5.17672 13.58 4.0593V4.0393Z" fill="#C1C7CD"/>
<path d="M10.79 5.9993C11.2614 6.55831 11.5124 7.27026 11.4959 8.00133C11.4793 8.73239 11.1963 9.43223 10.7 9.9693L11.435 10.6493C12.0964 9.93249 12.4732 8.99869 12.4944 8.02356C12.5155 7.04843 12.1797 6.09916 11.55 5.3543L10.79 5.9993Z" fill="#C1C7CD"/>
<path d="M9 14.9993C8.93385 14.999 8.86841 14.9856 8.80747 14.9599C8.74653 14.9341 8.69131 14.8965 8.645 14.8493L4.835 10.9993H1.5C1.36739 10.9993 1.24021 10.9466 1.14645 10.8529C1.05268 10.7591 1 10.6319 1 10.4993V5.4993C1 5.36669 1.05268 5.23952 1.14645 5.14575C1.24021 5.05198 1.36739 4.9993 1.5 4.9993H4.835L8.645 1.1493C8.73868 1.05618 8.86541 1.00391 8.9975 1.00391C9.12959 1.00391 9.25632 1.05618 9.35 1.1493C9.44421 1.24162 9.49812 1.36742 9.5 1.4993V14.4993C9.5 14.6319 9.44732 14.7591 9.35355 14.8529C9.25979 14.9466 9.13261 14.9993 9 14.9993ZM2 9.9993H5.04C5.10615 9.99958 5.17159 10.013 5.23253 10.0387C5.29347 10.0645 5.34869 10.1021 5.395 10.1493L8.5 13.2843V2.7143L5.395 5.8493C5.34869 5.89655 5.29347 5.93413 5.23253 5.95988C5.17159 5.98563 5.10615 5.99903 5.04 5.9993H2V9.9993Z" fill="#C1C7CD"/>
</svg>
