<svg width="16" height="16" viewBox="0 0 16 16" fill="none" xmlns="http://www.w3.org/2000/svg">
<path d="M10 9.5H9.00001V8.5H7.00001V9.5H6.00001V8.5C6.00028 8.23487 6.10573 7.98068 6.29321 7.7932C6.48068 7.60572 6.73487 7.50028 7.00001 7.5H9.00001C9.26514 7.50028 9.51933 7.60572 9.7068 7.7932C9.89428 7.98068 9.99973 8.23487 10 8.5V9.5Z" fill="#C1C7CD"/>
<path d="M8.00001 7C7.70333 7 7.41332 6.91203 7.16665 6.7472C6.91998 6.58238 6.72772 6.34811 6.61419 6.07403C6.50065 5.79994 6.47095 5.49834 6.52883 5.20736C6.58671 4.91639 6.72957 4.64912 6.93934 4.43934C7.14912 4.22956 7.4164 4.0867 7.70737 4.02882C7.99834 3.97094 8.29994 4.00065 8.57403 4.11418C8.84812 4.22771 9.08239 4.41997 9.24721 4.66664C9.41203 4.91332 9.50001 5.20333 9.50001 5.5C9.49957 5.89769 9.34139 6.27897 9.06018 6.56018C8.77897 6.84139 8.3977 6.99956 8.00001 7ZM8.00001 5C7.90111 5 7.80444 5.02932 7.72222 5.08427C7.64 5.13921 7.57591 5.2173 7.53807 5.30866C7.50022 5.40002 7.49032 5.50055 7.50961 5.59755C7.5289 5.69454 7.57653 5.78363 7.64645 5.85355C7.71638 5.92348 7.80547 5.9711 7.90246 5.99039C7.99945 6.00969 8.09998 5.99978 8.19135 5.96194C8.28271 5.9241 8.3608 5.86001 8.41574 5.77779C8.47068 5.69556 8.50001 5.59889 8.50001 5.5C8.49986 5.36744 8.44713 5.24034 8.3534 5.14661C8.25966 5.05287 8.13257 5.00015 8.00001 5Z" fill="#C1C7CD"/>
<path d="M8.00001 15L3.78226 10.0257C3.75831 9.9971 3.60816 9.7999 3.60816 9.7999C2.88761 8.85084 2.49832 7.6916 2.50001 6.5C2.50001 5.04131 3.07947 3.64236 4.11092 2.61091C5.14237 1.57946 6.54131 1 8.00001 1C9.4587 1 10.8576 1.57946 11.8891 2.61091C12.9205 3.64236 13.5 5.04131 13.5 6.5C13.5018 7.69111 13.1128 8.84991 12.3926 9.79865L12.3919 9.7999C12.3919 9.7999 12.2419 9.9971 12.2195 10.0236L8.00001 15ZM4.40626 9.1975C4.40626 9.1975 4.52296 9.3516 4.54956 9.3847L8.00001 13.4539L11.455 9.37895C11.477 9.35135 11.5944 9.1961 11.5944 9.1961C12.183 8.42064 12.5012 7.47356 12.5 6.5C12.5 5.30653 12.0259 4.16193 11.182 3.31802C10.3381 2.47411 9.19348 2 8.00001 2C6.80653 2 5.66194 2.47411 4.81802 3.31802C3.97411 4.16193 3.50001 5.30653 3.50001 6.5C3.4989 7.47409 3.81725 8.42167 4.40626 9.1975Z" fill="#C1C7CD"/>
</svg>
