<svg width="16" height="16" viewBox="0 0 16 16" fill="none" xmlns="http://www.w3.org/2000/svg">
<path d="M9 7H8V8H9V7Z" fill="#C1C7CD"/>
<path d="M11 7H10V8H11V7Z" fill="#C1C7CD"/>
<path d="M13 7H12V8H13V7Z" fill="#C1C7CD"/>
<path d="M9 9H8V10H9V9Z" fill="#C1C7CD"/>
<path d="M11 9H10V10H11V9Z" fill="#C1C7CD"/>
<path d="M13 9H12V10H13V9Z" fill="#C1C7CD"/>
<path d="M9 11H8V12H9V11Z" fill="#C1C7CD"/>
<path d="M11 11H10V12H11V11Z" fill="#C1C7CD"/>
<path d="M13 11H12V12H13V11Z" fill="#C1C7CD"/>
<path d="M13 5H8V6H13V5Z" fill="#C1C7CD"/>
<path d="M14 3H7V2.5C6.99967 2.23489 6.89421 1.98072 6.70674 1.79326C6.51928 1.60579 6.26511 1.50033 6 1.5H4C3.73488 1.50033 3.48072 1.60579 3.29326 1.79326C3.10579 1.98072 3.00033 2.23489 3 2.5V3H2C1.73489 3.00033 1.48072 3.10579 1.29326 3.29326C1.10579 3.48072 1.00033 3.73488 1 4V13C1.00033 13.2651 1.10579 13.5193 1.29326 13.7067C1.48072 13.8942 1.73489 13.9997 2 14H14C14.2651 13.9997 14.5193 13.8942 14.7067 13.7067C14.8942 13.5193 14.9997 13.2651 15 13V4C14.9997 3.73488 14.8942 3.48072 14.7067 3.29326C14.5193 3.10579 14.2651 3.00033 14 3ZM4 2.5H6V11H4V2.5ZM14 13H2V4H3V11C3.00033 11.2651 3.10579 11.5193 3.29326 11.7067C3.48072 11.8942 3.73488 11.9997 4 12H6C6.26511 11.9997 6.51928 11.8942 6.70674 11.7067C6.89421 11.5193 6.99967 11.2651 7 11V4H14V13Z" fill="#C1C7CD"/>
</svg>
