<svg width="16" height="16" viewBox="0 0 16 16" fill="none" xmlns="http://www.w3.org/2000/svg">
<path d="M13.0001 3V4.085L2.82013 5.935C2.58718 5.9776 2.3769 6.10149 2.22673 6.28461C2.07657 6.46774 1.99627 6.69821 2.00013 6.935V9.105C1.99627 9.34179 2.07657 9.57226 2.22673 9.75539C2.3769 9.93851 2.58718 10.0624 2.82013 10.105L4.00013 10.28V12C4.00013 12.2652 4.10549 12.5196 4.29303 12.7071C4.48056 12.8946 4.73492 13 5.00013 13H9.00013C9.26535 13 9.5197 12.8946 9.70724 12.7071C9.89478 12.5196 10.0001 12.2652 10.0001 12V11.37L13.0001 11.915V13H14.0001V3H13.0001ZM9.00013 12H5.00013V10.465L9.00013 11.19V12ZM3.00013 9.085V6.915L13.0001 5.1V10.9L3.00013 9.085Z" fill="#C1C7CD"/>
</svg>
