<svg width="40" height="40" viewBox="0 0 40 40" fill="none" xmlns="http://www.w3.org/2000/svg">
<rect width="40" height="40" rx="20" fill="white" fill-opacity="0.9"/>
<path d="M21.1593 29.3333L19.9993 28.6667L22.666 24H26.666C27.0196 24 27.3588 23.8595 27.6088 23.6095C27.8589 23.3594 27.9993 23.0203 27.9993 22.6667V14.6667C27.9993 14.313 27.8589 13.9739 27.6088 13.7239C27.3588 13.4738 27.0196 13.3333 26.666 13.3333H13.3327C12.9791 13.3333 12.6399 13.4738 12.3899 13.7239C12.1398 13.9739 11.9993 14.313 11.9993 14.6667V22.6667C11.9993 23.0203 12.1398 23.3594 12.3899 23.6095C12.6399 23.8595 12.9791 24 13.3327 24H19.3327V25.3333H13.3327C12.6254 25.3333 11.9472 25.0524 11.4471 24.5523C10.947 24.0522 10.666 23.3739 10.666 22.6667V14.6667C10.666 13.9594 10.947 13.2811 11.4471 12.781C11.9472 12.281 12.6254 12 13.3327 12H26.666C27.3733 12 28.0515 12.281 28.5516 12.781C29.0517 13.2811 29.3327 13.9594 29.3327 14.6667V22.6667C29.3327 23.3739 29.0517 24.0522 28.5516 24.5523C28.0515 25.0524 27.3733 25.3333 26.666 25.3333H23.4393L21.1593 29.3333Z" fill="#A56EFF"/>
<path d="M25.3327 16H14.666V17.3333H25.3327V16Z" fill="#A56EFF"/>
<path d="M21.3327 20H14.666V21.3333H21.3327V20Z" fill="#A56EFF"/>
</svg>
