<svg width="16" height="16" viewBox="0 0 16 16" fill="none" xmlns="http://www.w3.org/2000/svg">
<path d="M13.7252 7.55476L2.72519 2.05476C2.63897 2.01164 2.54213 1.99437 2.44633 2.00501C2.35052 2.01566 2.25983 2.05377 2.18519 2.11476C2.1139 2.17451 2.06069 2.25295 2.03154 2.34128C2.00239 2.42961 1.99846 2.52432 2.02019 2.61476L3.50019 7.99976L2.00019 13.3698C1.9798 13.4453 1.97742 13.5245 1.99324 13.6012C2.00906 13.6778 2.04263 13.7496 2.09127 13.8109C2.1399 13.8722 2.20223 13.9212 2.27325 13.954C2.34427 13.9868 2.422 14.0025 2.50019 13.9998C2.57846 13.9993 2.65553 13.9805 2.72519 13.9448L13.7252 8.44476C13.8071 8.4028 13.8758 8.33905 13.9238 8.26054C13.9718 8.18202 13.9972 8.09178 13.9972 7.99976C13.9972 7.90774 13.9718 7.8175 13.9238 7.73898C13.8758 7.66047 13.8071 7.59672 13.7252 7.55476ZM3.27519 12.5548L4.38019 8.49976H9.00019V7.49976H4.38019L3.27519 3.44476L12.3802 7.99976L3.27519 12.5548Z" fill="#C1C7CD"/>
</svg>
