<svg width="16" height="16" viewBox="0 0 16 16" fill="none" xmlns="http://www.w3.org/2000/svg">
<path d="M13.5001 8.37971C13.5001 8.25471 13.5001 8.12971 13.5001 7.99971C13.5001 7.86971 13.5001 7.74471 13.5001 7.61471L14.4601 6.77471C14.6371 6.61874 14.7532 6.40523 14.788 6.17192C14.8228 5.9386 14.7739 5.70051 14.6501 5.49971L13.4701 3.49972C13.3824 3.34785 13.2564 3.22171 13.1045 3.13395C12.9527 3.04619 12.7805 2.99989 12.6051 2.99971C12.4965 2.99888 12.3884 3.01577 12.2851 3.04972L11.0701 3.45972C10.8604 3.32032 10.6415 3.19504 10.4151 3.08472L10.1601 1.82472C10.1144 1.59452 9.98917 1.38774 9.80635 1.24057C9.62354 1.0934 9.39478 1.01522 9.16013 1.01971H6.82013C6.58548 1.01522 6.35672 1.0934 6.1739 1.24057C5.99108 1.38774 5.86585 1.59452 5.82013 1.82472L5.56513 3.08472C5.33709 3.19502 5.11661 3.32029 4.90513 3.45972L3.71513 3.02972C3.61077 3.00253 3.50271 2.9924 3.39513 2.99971C3.21976 2.99989 3.04753 3.04619 2.89571 3.13395C2.74388 3.22171 2.61781 3.34785 2.53013 3.49972L1.35013 5.49971C1.23342 5.70021 1.19005 5.93504 1.22745 6.164C1.26485 6.39295 1.38069 6.60178 1.55513 6.75471L2.50013 7.61971C2.50013 7.74471 2.50013 7.86971 2.50013 7.99971C2.50013 8.12971 2.50013 8.25471 2.50013 8.38472L1.55513 9.22472C1.37576 9.37871 1.25675 9.59128 1.21923 9.82469C1.1817 10.0581 1.22807 10.2973 1.35013 10.4997L2.53013 12.4997C2.61781 12.6516 2.74388 12.7777 2.89571 12.8655C3.04753 12.9532 3.21976 12.9995 3.39513 12.9997C3.5038 13.0005 3.61189 12.9837 3.71513 12.9497L4.93013 12.5397C5.1399 12.6791 5.35871 12.8044 5.58513 12.9147L5.84013 14.1747C5.88585 14.4049 6.01108 14.6117 6.1939 14.7589C6.37672 14.906 6.60548 14.9842 6.84013 14.9797H9.20013C9.43478 14.9842 9.66354 14.906 9.84635 14.7589C10.0292 14.6117 10.1544 14.4049 10.2001 14.1747L10.4551 12.9147C10.6832 12.8044 10.9036 12.6791 11.1151 12.5397L12.3251 12.9497C12.4284 12.9837 12.5365 13.0005 12.6451 12.9997C12.8205 12.9995 12.9927 12.9532 13.1445 12.8655C13.2964 12.7777 13.4224 12.6516 13.5101 12.4997L14.6501 10.4997C14.7668 10.2992 14.8102 10.0644 14.7728 9.83543C14.7354 9.60648 14.6196 9.39765 14.4451 9.24471L13.5001 8.37971ZM12.6051 11.9997L10.8901 11.4197C10.4887 11.7598 10.0298 12.0256 9.53513 12.2047L9.18013 13.9997H6.82013L6.46513 12.2247C5.97434 12.0405 5.51798 11.7751 5.11513 11.4397L3.39513 11.9997L2.21513 9.99971L3.57513 8.79972C3.48267 8.28214 3.48267 7.75229 3.57513 7.23471L2.21513 5.99971L3.39513 3.99972L5.11013 4.57972C5.51159 4.23966 5.97043 3.97384 6.46513 3.79472L6.82013 1.99971H9.18013L9.53513 3.77472C10.0259 3.95893 10.4823 4.22429 10.8851 4.55972L12.6051 3.99972L13.7851 5.99971L12.4251 7.19971C12.5176 7.71729 12.5176 8.24714 12.4251 8.76472L13.7851 9.99971L12.6051 11.9997Z" fill="#C1C7CD"/>
<path d="M8.00013 10.9997C7.40678 10.9997 6.82676 10.8238 6.33342 10.4941C5.84007 10.1645 5.45555 9.69594 5.22849 9.14777C5.00143 8.59959 4.94202 7.99639 5.05777 7.41444C5.17353 6.8325 5.45925 6.29795 5.87881 5.8784C6.29836 5.45884 6.83291 5.17312 7.41486 5.05736C7.9968 4.9416 8.6 5.00101 9.14818 5.22808C9.69635 5.45514 10.1649 5.83966 10.4945 6.333C10.8242 6.82635 11.0001 7.40637 11.0001 7.99972C11.0041 8.3948 10.9293 8.78671 10.7799 9.15249C10.6306 9.51828 10.4098 9.8506 10.1304 10.13C9.85101 10.4094 9.51869 10.6302 9.15291 10.7795C8.78712 10.9289 8.39521 11.0037 8.00013 10.9997ZM8.00013 5.99972C7.7358 5.99356 7.47297 6.04108 7.22753 6.13941C6.9821 6.23774 6.75916 6.38483 6.5722 6.57179C6.38524 6.75875 6.23815 6.98169 6.13982 7.22712C6.04149 7.47256 5.99397 7.73539 6.00013 7.99972C5.99397 8.26404 6.04149 8.52687 6.13982 8.77231C6.23815 9.01774 6.38524 9.24068 6.5722 9.42764C6.75916 9.6146 6.9821 9.76169 7.22753 9.86002C7.47297 9.95835 7.7358 10.0059 8.00013 9.99971C8.26445 10.0059 8.52728 9.95835 8.77272 9.86002C9.01815 9.76169 9.24109 9.6146 9.42805 9.42764C9.61501 9.24068 9.7621 9.01774 9.86043 8.77231C9.95876 8.52687 10.0063 8.26404 10.0001 7.99972C10.0063 7.73539 9.95876 7.47256 9.86043 7.22712C9.7621 6.98169 9.61501 6.75875 9.42805 6.57179C9.24109 6.38483 9.01815 6.23774 8.77272 6.13941C8.52728 6.04108 8.26445 5.99356 8.00013 5.99972Z" fill="#C1C7CD"/>
</svg>
