<svg width="16" height="16" viewBox="0 0 16 16" fill="none" xmlns="http://www.w3.org/2000/svg">
<path d="M13.4996 8.37971C13.4996 8.25471 13.4996 8.12971 13.4996 7.99971C13.4996 7.86971 13.4996 7.74471 13.4996 7.61471L14.4596 6.77471C14.6366 6.61874 14.7527 6.40523 14.7875 6.17192C14.8223 5.9386 14.7734 5.70051 14.6496 5.49971L13.4696 3.49972C13.382 3.34785 13.2559 3.22171 13.1041 3.13395C12.9522 3.04619 12.78 2.99989 12.6046 2.99971C12.496 2.99888 12.3879 3.01577 12.2846 3.04972L11.0696 3.45972C10.8599 3.32032 10.6411 3.19504 10.4146 3.08472L10.1596 1.82472C10.1139 1.59452 9.98868 1.38774 9.80587 1.24057C9.62305 1.0934 9.39429 1.01522 9.15964 1.01971H6.81964C6.58499 1.01522 6.35623 1.0934 6.17341 1.24057C5.99059 1.38774 5.86536 1.59452 5.81964 1.82472L5.56464 3.08472C5.3366 3.19502 5.11612 3.32029 4.90464 3.45972L3.71464 3.02972C3.61029 3.00253 3.50222 2.9924 3.39464 2.99971C3.21928 2.99989 3.04704 3.04619 2.89522 3.13395C2.7434 3.22171 2.61732 3.34785 2.52964 3.49972L1.34964 5.49971C1.23293 5.70021 1.18956 5.93504 1.22696 6.164C1.26436 6.39295 1.3802 6.60178 1.55464 6.75471L2.49964 7.61971C2.49964 7.74471 2.49964 7.86971 2.49964 7.99971C2.49964 8.12971 2.49964 8.25471 2.49964 8.38472L1.55464 9.22472C1.37527 9.37871 1.25627 9.59128 1.21874 9.82469C1.18121 10.0581 1.22759 10.2973 1.34964 10.4997L2.52964 12.4997C2.61732 12.6516 2.7434 12.7777 2.89522 12.8655C3.04704 12.9532 3.21928 12.9995 3.39464 12.9997C3.50331 13.0005 3.6114 12.9837 3.71464 12.9497L4.92964 12.5397C5.13941 12.6791 5.35823 12.8044 5.58464 12.9147L5.83964 14.1747C5.88536 14.4049 6.01059 14.6117 6.19341 14.7589C6.37623 14.906 6.60499 14.9842 6.83964 14.9797H9.19964C9.43429 14.9842 9.66305 14.906 9.84587 14.7589C10.0287 14.6117 10.1539 14.4049 10.1996 14.1747L10.4546 12.9147C10.6827 12.8044 10.9032 12.6791 11.1146 12.5397L12.3246 12.9497C12.4279 12.9837 12.536 13.0005 12.6446 12.9997C12.82 12.9995 12.9922 12.9532 13.1441 12.8655C13.2959 12.7777 13.422 12.6516 13.5096 12.4997L14.6496 10.4997C14.7663 10.2992 14.8097 10.0644 14.7723 9.83543C14.7349 9.60648 14.6191 9.39765 14.4446 9.24471L13.4996 8.37971ZM12.6046 11.9997L10.8896 11.4197C10.4882 11.7598 10.0293 12.0256 9.53464 12.2047L9.17964 13.9997H6.81964L6.46464 12.2247C5.97385 12.0405 5.5175 11.7751 5.11464 11.4397L3.39464 11.9997L2.21464 9.99971L3.57464 8.79972C3.48219 8.28214 3.48219 7.75229 3.57464 7.23471L2.21464 5.99971L3.39464 3.99972L5.10964 4.57972C5.51111 4.23966 5.96994 3.97384 6.46464 3.79472L6.81964 1.99971H9.17964L9.53464 3.77472C10.0254 3.95893 10.4818 4.22429 10.8846 4.55972L12.6046 3.99972L13.7846 5.99971L12.4246 7.19971C12.5171 7.71729 12.5171 8.24714 12.4246 8.76472L13.7846 9.99971L12.6046 11.9997Z" fill="#697077"/>
<path d="M7.99964 10.9997C7.40629 10.9997 6.82627 10.8238 6.33293 10.4941C5.83958 10.1645 5.45506 9.69594 5.228 9.14777C5.00094 8.59959 4.94153 7.99639 5.05728 7.41444C5.17304 6.8325 5.45876 6.29795 5.87832 5.8784C6.29788 5.45884 6.83242 5.17312 7.41437 5.05736C7.99631 4.9416 8.59951 5.00101 9.14769 5.22808C9.69587 5.45514 10.1644 5.83966 10.494 6.333C10.8237 6.82635 10.9996 7.40637 10.9996 7.99972C11.0036 8.3948 10.9288 8.78671 10.7794 9.15249C10.6301 9.51828 10.4093 9.8506 10.1299 10.13C9.85052 10.4094 9.51821 10.6302 9.15242 10.7795C8.78663 10.9289 8.39472 11.0037 7.99964 10.9997ZM7.99964 5.99972C7.73531 5.99356 7.47248 6.04108 7.22705 6.13941C6.98161 6.23774 6.75867 6.38483 6.57171 6.57179C6.38476 6.75875 6.23766 6.98169 6.13933 7.22712C6.041 7.47256 5.99348 7.73539 5.99964 7.99972C5.99348 8.26404 6.041 8.52687 6.13933 8.77231C6.23766 9.01774 6.38476 9.24068 6.57171 9.42764C6.75867 9.6146 6.98161 9.76169 7.22705 9.86002C7.47248 9.95835 7.73531 10.0059 7.99964 9.99971C8.26397 10.0059 8.52679 9.95835 8.77223 9.86002C9.01766 9.76169 9.2406 9.6146 9.42756 9.42764C9.61452 9.24068 9.76161 9.01774 9.85994 8.77231C9.95827 8.52687 10.0058 8.26404 9.99964 7.99972C10.0058 7.73539 9.95827 7.47256 9.85994 7.22712C9.76161 6.98169 9.61452 6.75875 9.42756 6.57179C9.2406 6.38483 9.01766 6.23774 8.77223 6.13941C8.52679 6.04108 8.26397 5.99356 7.99964 5.99972Z" fill="#697077"/>
</svg>
