<svg width="24" height="25" viewBox="0 0 24 25" fill="none" xmlns="http://www.w3.org/2000/svg">
<mask id="mask0_522_9363" style="mask-type:alpha" maskUnits="userSpaceOnUse" x="0" y="0" width="24" height="25">
<rect y="0.628906" width="24" height="24" fill="#D9D9D9"/>
</mask>
<g mask="url(#mask0_522_9363)">
<path d="M9.54978 15.7949L18.1633 7.18149C18.3742 6.9661 18.6247 6.8568 18.9147 6.85358C19.2048 6.85038 19.4607 6.95793 19.6825 7.17621C19.9043 7.39449 20.0152 7.64769 20.0152 7.93581C20.0152 8.22393 19.9043 8.47889 19.6825 8.70069L10.4075 17.9757C10.1631 18.2231 9.87792 18.3468 9.55205 18.3468C9.22618 18.3468 8.93953 18.2231 8.6921 17.9757L4.3671 13.6507C4.15172 13.4398 4.04498 13.1893 4.0469 12.8992C4.04883 12.6092 4.15894 12.3533 4.37723 12.1315C4.59551 11.9097 4.84871 11.7988 5.13683 11.7988C5.42494 11.7988 5.67989 11.9097 5.90168 12.1315L9.54978 15.7949Z" fill="white"/>
</g>
</svg>
