<svg width="430" height="60" viewBox="0 0 430 60" fill="none" xmlns="http://www.w3.org/2000/svg">
<g clip-path="url(#clip0_1758_632)">
<path d="M314.805 0C311.196 0.0207075 308.569 2.60915 308.548 6.04659C308.564 9.39085 311.196 11.9896 314.8 12.0104C318.499 11.9845 321.025 9.41156 321.057 6.04659C321.057 4.31234 320.397 2.8214 319.303 1.74461C318.203 0.667817 316.665 0.00517688 314.805 0.00517688V0Z" fill="black"/>
<path d="M309.309 37.8952V58.846H320.354V16.9443H309.309V37.8952Z" fill="black"/>
<path d="M159.197 2.85254H148.151V38.9768C148.151 44.4643 150.424 49.4289 154.092 53.0268C157.765 56.6248 162.833 58.8456 168.435 58.8456C168.699 58.8456 168.969 58.8405 169.228 58.8301V58.8456H177.446V49.5583H169.228C168.99 49.5739 168.752 49.5894 168.509 49.5894C163.361 49.5894 159.192 45.5048 159.192 40.4626V26.0139H177.446V17.0786H159.192V2.85254H159.197Z" fill="black"/>
<path d="M129.368 40.4626C129.368 45.5049 125.199 49.5894 120.051 49.5894C119.808 49.5894 119.57 49.5791 119.332 49.5584C119.095 49.5739 118.857 49.5894 118.614 49.5894C113.466 49.5894 109.296 45.5049 109.296 40.4626V16.9492H98.251V38.9768C98.251 44.4643 100.523 49.4289 104.191 53.0269C107.864 56.6248 112.932 58.8457 118.534 58.8457C118.799 58.8457 119.068 58.8405 119.327 58.8302C119.591 58.8405 119.856 58.8457 120.12 58.8457C125.722 58.8457 130.79 56.6196 134.463 53.0269C138.136 49.4289 140.403 44.4643 140.403 38.9768V16.9492H129.358V40.4626H129.368Z" fill="black"/>
<path d="M360.45 40.4626C360.45 45.5049 356.281 49.5894 351.133 49.5894C350.89 49.5894 350.652 49.5791 350.414 49.5584C350.177 49.5739 349.939 49.5894 349.696 49.5894C344.548 49.5894 340.378 45.5049 340.378 40.4626V16.9492H329.333V38.9768C329.333 44.4643 331.606 49.4289 335.273 53.0269C338.946 56.6248 344.014 58.8457 349.616 58.8457C349.881 58.8457 350.15 58.8405 350.409 58.8302C350.673 58.8405 350.938 58.8457 351.202 58.8457C356.804 58.8457 361.872 56.6196 365.545 53.0269C369.218 49.4289 371.485 44.4643 371.485 38.9768V16.9492H360.44V40.4626H360.45Z" fill="black"/>
<path d="M85.4193 23.2545C81.461 19.3771 76.0017 16.9854 69.9663 16.9854C63.931 16.9854 58.4664 19.3822 54.5133 23.2545C50.5549 27.132 48.1133 32.4797 48.1133 38.3917C48.1133 44.3037 50.5602 49.6566 54.5133 53.5289C58.4717 57.4064 63.931 59.7981 69.9663 59.7981C74.3845 59.7981 78.4961 58.5143 81.9313 56.3037V58.8404H91.8246V37.8896H91.8193C91.6872 32.1743 89.2667 27.013 85.4246 23.2494L85.4193 23.2545ZM69.9663 50.1174C63.3602 50.1174 58.0013 44.868 58.0013 38.3969C58.0013 31.9258 63.3602 26.6765 69.9663 26.6765C76.5724 26.6765 81.9313 31.9258 81.9313 38.3969C81.9313 44.8732 76.5724 50.1174 69.9663 50.1174Z" fill="black"/>
<path d="M291.277 16.9599C291.013 16.9495 290.749 16.9443 290.485 16.9443C287.155 16.9443 284.016 17.7312 281.247 19.1186V17.0738H270.201V58.8408H281.247V35.3274C281.247 30.2851 285.416 26.2006 290.564 26.2006C290.807 26.2006 291.045 26.2109 291.283 26.2317H301.467V16.9443H291.283V16.9599H291.277Z" fill="black"/>
<path d="M259.419 26.3145H235.13V35.3792H259.419V26.3145Z" fill="black"/>
<path d="M425.423 20.2313C422.612 17.472 418.701 15.7637 414.404 15.7637C410.351 15.7637 406.672 17.296 403.898 19.7758C401.134 17.296 397.45 15.7637 393.397 15.7637C384.782 15.7637 377.785 22.5971 377.785 31.0406V57.277H387.832V30.9216C387.832 27.9034 390.316 25.4703 393.397 25.4703C394.929 25.4703 396.319 26.076 397.334 27.0648C398.116 27.8361 398.65 28.8198 398.856 29.9276C398.83 30.2848 398.798 30.6524 398.798 31.0355V57.2719H408.998V31.0355C408.998 30.6783 408.971 30.3418 408.945 30.0104C409.389 27.4324 411.651 25.4703 414.409 25.4703C415.942 25.4703 417.332 26.076 418.347 27.0648C419.356 28.0588 419.974 29.4047 419.974 30.9216V57.277H430.01V31.0406C430.01 26.8215 428.266 22.9958 425.434 20.2313H425.423Z" fill="black"/>
<path d="M217.034 39.5254L217.019 39.6962L217.302 39.4736L217.034 39.5254Z" fill="black"/>
<path d="M204.134 51.085C200.562 51.085 197.327 49.6614 194.981 47.3628C192.634 45.0643 191.181 41.896 191.181 38.3965C191.181 34.8969 192.634 31.7235 194.981 29.4249C197.327 27.1316 200.562 25.708 204.134 25.708C206.756 25.708 209.192 26.4793 211.227 27.7994L196.392 39.1005L201.878 46.0272L216.839 34.6432L224.064 29.135L223.979 28.9642C222.726 26.4017 220.961 24.129 218.826 22.255C214.926 18.8279 209.757 16.752 204.108 16.752C191.921 16.752 182.038 26.4327 182.038 38.3861C182.038 50.3395 191.921 60.0048 204.108 60.0048C216.295 60.0048 225.427 51.0229 226.125 39.7011H217.008C216.326 46.0945 210.825 51.0902 204.124 51.0902L204.134 51.085Z" fill="black"/>
<path d="M31.1174 26.3814H11.0454V2.85254H0V58.8456H11.0454V35.3167H31.1174V44.0191V58.8456H42.1629V44.0191V2.85254H31.1174V26.3814Z" fill="black"/>
</g>
<defs>
<clipPath id="clip0_1758_632">
<rect width="430" height="60" fill="white"/>
</clipPath>
</defs>
</svg>
