<svg width="34" height="32" viewBox="0 0 34 32" fill="none" xmlns="http://www.w3.org/2000/svg">
<path d="M16.8174 5.5C14.7407 5.5 12.7106 6.11581 10.9839 7.26957C9.25718 8.42332 7.91137 10.0632 7.11665 11.9818C6.32193 13.9004 6.114 16.0116 6.51914 18.0484C6.92429 20.0852 7.92431 21.9562 9.39277 23.4246C10.8612 24.8931 12.7321 25.8931 14.7689 26.2982C16.8057 26.7034 18.9169 26.4955 20.8356 25.7007C22.7542 24.906 24.3941 23.5602 25.5478 21.8335C26.7016 20.1068 27.3174 18.0767 27.3174 16C27.3174 13.2152 26.2111 10.5445 24.242 8.57538C22.2729 6.60625 19.6022 5.5 16.8174 5.5V5.5ZM25.8174 15.25H21.3174C21.2298 12.4878 20.5142 9.78186 19.2249 7.3375C21.0013 7.82342 22.5859 8.84263 23.7648 10.2576C24.9437 11.6725 25.6601 13.415 25.8174 15.25V15.25ZM16.8174 25C16.6501 25.0112 16.4822 25.0112 16.3149 25C14.7611 22.5221 13.8988 19.6736 13.8174 16.75H19.8174C19.7428 19.6715 18.8883 22.5199 17.3424 25C17.1676 25.0123 16.9922 25.0123 16.8174 25ZM13.8174 15.25C13.892 12.3285 14.7465 9.48012 16.2924 7C16.6263 6.96247 16.9634 6.96247 17.2974 7C18.8591 9.4756 19.7292 12.3243 19.8174 15.25H13.8174ZM14.3874 7.3375C13.1059 9.78373 12.398 12.4896 12.3174 15.25H7.81739C7.97466 13.415 8.69109 11.6725 9.86998 10.2576C11.0489 8.84263 12.6335 7.82342 14.4099 7.3375H14.3874ZM7.85489 16.75H12.3549C12.4332 19.5098 13.1385 22.2156 14.4174 24.6625C12.6465 24.1714 11.0685 23.1499 9.8953 21.7354C8.72214 20.3209 8.0101 18.5811 7.85489 16.75V16.75ZM19.2249 24.6625C20.5142 22.2181 21.2298 19.5122 21.3174 16.75H25.8174C25.6601 18.585 24.9437 20.3275 23.7648 21.7424C22.5859 23.1574 21.0013 24.1766 19.2249 24.6625Z" fill="black"/>
</svg>
