<svg width="24" height="24" viewBox="0 0 24 24" fill="none" xmlns="http://www.w3.org/2000/svg">
<rect width="24" height="24" rx="12" fill="white"/>
<path d="M12 5C10.6155 5 9.26216 5.41054 8.11101 6.17971C6.95987 6.94888 6.06266 8.04213 5.53285 9.32122C5.00303 10.6003 4.86441 12.0078 5.13451 13.3656C5.4046 14.7235 6.07129 15.9708 7.05026 16.9497C8.02922 17.9287 9.2765 18.5954 10.6344 18.8655C11.9922 19.1356 13.3997 18.997 14.6788 18.4672C15.9579 17.9373 17.0511 17.0401 17.8203 15.889C18.5895 14.7378 19 13.3845 19 12C19 10.1435 18.2625 8.36301 16.9497 7.05025C15.637 5.7375 13.8565 5 12 5ZM18 11.5H15C14.9416 9.65854 14.4646 7.85458 13.605 6.225C14.7893 6.54895 15.8457 7.22842 16.6316 8.17171C17.4175 9.115 17.8952 10.2767 18 11.5ZM12 18C11.8885 18.0075 11.7765 18.0075 11.665 18C10.6291 16.3481 10.0543 14.4491 10 12.5H14C13.9503 14.4477 13.3806 16.3466 12.35 18C12.2335 18.0082 12.1165 18.0082 12 18ZM10 11.5C10.0497 9.55234 10.6194 7.65341 11.65 6C11.8726 5.97498 12.0974 5.97498 12.32 6C13.3611 7.6504 13.9412 9.54953 14 11.5H10ZM10.38 6.225C9.52565 7.85582 9.05373 9.65972 9 11.5H6C6.10485 10.2767 6.58247 9.115 7.3684 8.17171C8.15432 7.22842 9.21072 6.54895 10.395 6.225H10.38ZM6.025 12.5H9.025C9.07718 14.3399 9.54739 16.1438 10.4 17.775C9.21943 17.4476 8.16739 16.7666 7.38528 15.8236C6.60317 14.8806 6.12848 13.7208 6.025 12.5ZM13.605 17.775C14.4646 16.1454 14.9416 14.3415 15 12.5H18C17.8952 13.7233 17.4175 14.885 16.6316 15.8283C15.8457 16.7716 14.7893 17.4511 13.605 17.775Z" fill="#21272A"/>
</svg>
