<svg width="16" height="16" viewBox="0 0 16 16" fill="none" xmlns="http://www.w3.org/2000/svg">
<path d="M8 9.5C7.42247 9.50048 6.85382 9.35786 6.34487 9.08487C5.83593 8.81189 5.40256 8.41705 5.0835 7.93565L5.9165 7.38195C6.14459 7.72574 6.4542 8.00774 6.81774 8.20282C7.18127 8.3979 7.58743 8.49999 8 8.49999C8.41257 8.49999 8.81873 8.3979 9.18226 8.20282C9.5458 8.00774 9.85541 7.72574 10.0835 7.38195L10.9165 7.93565C10.5974 8.41705 10.1641 8.81189 9.65513 9.08487C9.14618 9.35786 8.57753 9.50048 8 9.5Z" fill="#C1C7CD"/>
<path d="M10 4C9.80222 4 9.60888 4.05865 9.44443 4.16853C9.27998 4.27841 9.15181 4.43459 9.07612 4.61732C9.00043 4.80004 8.98063 5.00111 9.01921 5.19509C9.0578 5.38907 9.15304 5.56725 9.29289 5.70711C9.43275 5.84696 9.61093 5.9422 9.80491 5.98079C9.99889 6.01937 10.2 5.99957 10.3827 5.92388C10.5654 5.84819 10.7216 5.72002 10.8315 5.55557C10.9414 5.39112 11 5.19778 11 5C11.0013 4.86832 10.9763 4.7377 10.9265 4.61579C10.8767 4.49388 10.8031 4.38312 10.71 4.29C10.6169 4.19689 10.5061 4.12328 10.3842 4.07348C10.2623 4.02368 10.1317 3.9987 10 4Z" fill="#C1C7CD"/>
<path d="M6 4C5.80222 4 5.60888 4.05865 5.44443 4.16853C5.27998 4.27841 5.15181 4.43459 5.07612 4.61732C5.00043 4.80004 4.98063 5.00111 5.01921 5.19509C5.0578 5.38907 5.15304 5.56725 5.29289 5.70711C5.43275 5.84696 5.61093 5.9422 5.80491 5.98079C5.99889 6.01937 6.19996 5.99957 6.38268 5.92388C6.56541 5.84819 6.72159 5.72002 6.83147 5.55557C6.94135 5.39112 7 5.19778 7 5C7.0013 4.86832 6.97632 4.7377 6.92652 4.61579C6.87672 4.49388 6.80311 4.38312 6.71 4.29C6.61688 4.19689 6.50612 4.12328 6.38421 4.07348C6.2623 4.02368 6.13168 3.9987 6 4Z" fill="#C1C7CD"/>
<path d="M8.8679 15L8 14.5L10 11H13C13.1314 11.0002 13.2615 10.9745 13.3829 10.9243C13.5044 10.8742 13.6147 10.8005 13.7076 10.7076C13.8005 10.6147 13.8742 10.5044 13.9243 10.3829C13.9745 10.2615 14.0002 10.1314 14 10V3C14.0002 2.86862 13.9745 2.73848 13.9243 2.61705C13.8742 2.49563 13.8005 2.3853 13.7076 2.29239C13.6147 2.19949 13.5044 2.12584 13.3829 2.07566C13.2615 2.02549 13.1314 1.99978 13 2H3C2.86862 1.99978 2.73848 2.02549 2.61705 2.07566C2.49563 2.12584 2.3853 2.19949 2.29239 2.29239C2.19949 2.3853 2.12584 2.49563 2.07566 2.61705C2.02549 2.73848 1.99978 2.86862 2 3V10C1.99978 10.1314 2.02549 10.2615 2.07566 10.3829C2.12584 10.5044 2.19949 10.6147 2.29239 10.7076C2.3853 10.8005 2.49563 10.8742 2.61705 10.9243C2.73848 10.9745 2.86862 11.0002 3 11H7.5V12H3C2.73734 12 2.47725 11.9483 2.23458 11.8479C1.99191 11.7474 1.77141 11.6 1.58568 11.4143C1.39996 11.2286 1.25264 11.0081 1.15215 10.7654C1.05165 10.5227 0.999954 10.2627 1 10V3C0.999921 2.73733 1.0516 2.47723 1.15208 2.23454C1.25256 1.99185 1.39988 1.77134 1.58561 1.58561C1.77134 1.39988 1.99185 1.25256 2.23454 1.15208C2.47723 1.0516 2.73733 0.999921 3 1H13C13.2627 0.999921 13.5228 1.0516 13.7655 1.15208C14.0081 1.25256 14.2287 1.39988 14.4144 1.58561C14.6001 1.77134 14.7474 1.99185 14.8479 2.23454C14.9484 2.47723 15.0001 2.73733 15 3V10C15 10.2627 14.9483 10.5227 14.8479 10.7654C14.7474 11.0081 14.6 11.2286 14.4143 11.4143C14.2286 11.6 14.0081 11.7474 13.7654 11.8479C13.5227 11.9483 13.2627 12 13 12H10.5823L8.8679 15Z" fill="#C1C7CD"/>
</svg>
