<svg width="16" height="16" viewBox="0 0 16 16" fill="none" xmlns="http://www.w3.org/2000/svg">
<g clip-path="url(#clip0_739_11288)">
<path fill-rule="evenodd" clip-rule="evenodd" d="M6.52475 0.858464C5.95957 0.666612 5.34927 0.967576 5.15741 1.53275L2.04025 10.7155C2.41095 10.5268 2.83084 10.4205 3.27598 10.4205C3.67024 10.4205 4.0447 10.5039 4.38271 10.6541L7.58566 1.21859L6.52475 0.858464ZM4.52612 1.31846L1.04068 11.5861C0.733021 12.0273 0.552734 12.5641 0.552734 13.1437C0.552734 14.6498 1.76991 15.8669 3.27598 15.8669C3.91017 15.8669 4.49301 15.6503 4.95534 15.2875C5.03718 15.3064 5.12617 15.2946 5.20359 15.2475L14.6086 9.52612C15.4331 9.02457 15.694 7.95329 15.1924 7.12883L14.4369 5.88689C14.3412 5.72961 14.1362 5.67967 13.9789 5.77535L5.13703 11.1541C5.08235 11.103 5.02555 11.0541 4.96678 11.0075L8.3241 1.11724C8.38328 0.942915 8.28993 0.753626 8.1156 0.694451L6.73904 0.227177C5.82521 -0.0830253 4.83633 0.404633 4.52612 1.31846ZM5.56869 11.6719C5.84124 12.0961 5.99922 12.6011 5.99922 13.1437C5.99922 13.4743 5.94019 13.7914 5.83204 14.0849L14.2622 8.95657C14.7721 8.64637 14.9331 7.98522 14.6229 7.47531L14.0406 6.51815L5.56869 11.6719ZM3.27598 11.0872C2.1381 11.0872 1.21941 12.0059 1.21941 13.1437C1.21941 14.2816 2.1381 15.2003 3.27598 15.2003C4.41343 15.2003 5.33255 14.2773 5.33255 13.1437C5.33255 12.0059 4.41386 11.0872 3.27598 11.0872Z" fill="#C1C7CD"/>
</g>
<defs>
<clipPath id="clip0_739_11288">
<rect width="16" height="16" fill="white"/>
</clipPath>
</defs>
</svg>
