<svg width="16" height="16" viewBox="0 0 16 16" fill="none" xmlns="http://www.w3.org/2000/svg">
<path d="M4.59 9.28481C4.5321 9.02709 4.50193 8.76393 4.5 8.49981V6.99981H3.5V8.49981C3.49812 9.04313 3.59643 9.58213 3.79 10.0898L4.59 9.28481Z" fill="#C1C7CD"/>
<path d="M6.5 7.49981V3.49981C6.5 3.10198 6.65804 2.72045 6.93934 2.43915C7.22064 2.15784 7.60218 1.99981 8 1.99981C8.39782 1.99981 8.77936 2.15784 9.06066 2.43915C9.34196 2.72045 9.5 3.10198 9.5 3.49981V4.37481L10.5 3.37481C10.4834 2.71176 10.2041 2.08246 9.72357 1.62534C9.24301 1.16822 8.60054 0.920729 7.9375 0.937306C7.27446 0.953882 6.64516 1.23317 6.18804 1.71373C5.73092 2.19429 5.48342 2.83676 5.5 3.49981V7.49981H6.5Z" fill="#C1C7CD"/>
<path d="M11.5 8.49981C11.498 9.17823 11.299 9.84147 10.927 10.4088C10.555 10.9762 10.0261 11.4232 9.40474 11.6955C8.78335 11.9678 8.09622 12.0536 7.42695 11.9425C6.75768 11.8314 6.13511 11.5282 5.635 11.0698L6.345 10.3648C6.70516 10.6829 7.14937 10.8905 7.62446 10.9627C8.09954 11.0349 8.58536 10.9686 9.02376 10.7718C9.46216 10.5751 9.83455 10.2561 10.0964 9.85315C10.3582 9.4502 10.4983 8.98034 10.5 8.49981V6.20981L15 1.70981L14.295 0.999806L1 14.2948L1.705 14.9998L4.925 11.7798C5.63075 12.4464 6.53493 12.8643 7.5 12.9698V13.9998H5.5V14.9998H10.5V13.9998H8.5V12.9698C9.59968 12.8469 10.6155 12.323 11.3534 11.4985C12.0913 10.6739 12.4995 9.60634 12.5 8.49981V6.99981H11.5V8.49981ZM9.5 8.49981C9.4989 8.78328 9.4175 9.06064 9.26523 9.29974C9.11296 9.53884 8.89605 9.72991 8.63964 9.85078C8.38323 9.97166 8.09782 10.0174 7.81647 9.98273C7.53513 9.94804 7.26937 9.83434 7.05 9.65481L9.5 7.20981V8.49981Z" fill="#C1C7CD"/>
</svg>
