<svg width="25" height="24" viewBox="0 0 25 24" fill="none" xmlns="http://www.w3.org/2000/svg">
<path d="M13.805 22.5L12.5 21.75L15.5 16.5H20C20.3978 16.5 20.7794 16.342 21.0607 16.0607C21.342 15.7794 21.5 15.3978 21.5 15V6C21.5 5.60218 21.342 5.22064 21.0607 4.93934C20.7794 4.65804 20.3978 4.5 20 4.5H5C4.60218 4.5 4.22064 4.65804 3.93934 4.93934C3.65804 5.22064 3.5 5.60218 3.5 6V15C3.5 15.3978 3.65804 15.7794 3.93934 16.0607C4.22064 16.342 4.60218 16.5 5 16.5H11.75V18H5C4.20435 18 3.44129 17.6839 2.87868 17.1213C2.31607 16.5587 2 15.7956 2 15V6C2 5.20435 2.31607 4.44129 2.87868 3.87868C3.44129 3.31607 4.20435 3 5 3H20C20.7956 3 21.5587 3.31607 22.1213 3.87868C22.6839 4.44129 23 5.20435 23 6V15C23 15.7956 22.6839 16.5587 22.1213 17.1213C21.5587 17.6839 20.7956 18 20 18H16.37L13.805 22.5Z" fill="#8A3FFC"/>
<path d="M18.5 7.5H6.5V9H18.5V7.5Z" fill="#8A3FFC"/>
<path d="M14 12H6.5V13.5H14V12Z" fill="#8A3FFC"/>
</svg>
