<svg width="16" height="16" viewBox="0 0 16 16" fill="none" xmlns="http://www.w3.org/2000/svg">
<path d="M11.2244 3C11.5884 2.99969 11.9489 3.07207 12.2846 3.21287C12.6203 3.35368 12.9245 3.56009 13.1794 3.82C13.7046 4.35319 13.999 5.07158 13.999 5.82C13.999 6.56842 13.7046 7.28681 13.1794 7.82L7.9994 13.065L2.8194 7.82C2.29419 7.28681 1.99979 6.56842 1.99979 5.82C1.99979 5.07158 2.29419 4.35319 2.8194 3.82C3.07445 3.56028 3.37869 3.35398 3.71435 3.21315C4.05002 3.07232 4.41039 2.99979 4.7744 2.99979C5.13841 2.99979 5.49878 3.07232 5.83444 3.21315C6.17011 3.35398 6.47435 3.56028 6.7294 3.82L7.9994 5.12L9.2644 3.83C9.51852 3.56699 9.82307 3.35793 10.1598 3.21532C10.4966 3.07271 10.8587 2.99948 11.2244 3ZM11.2244 2C10.7272 1.99958 10.2349 2.09843 9.77646 2.29075C9.31797 2.48308 8.9025 2.765 8.5544 3.12L7.9994 3.68L7.4444 3.12C7.09587 2.76564 6.6803 2.48421 6.22189 2.2921C5.76349 2.09999 5.27143 2.00105 4.7744 2.00105C4.27737 2.00105 3.78531 2.09999 3.32691 2.2921C2.8685 2.48421 2.45292 2.76564 2.1044 3.12C1.39534 3.84181 0.998047 4.81318 0.998047 5.825C0.998047 6.83682 1.39534 7.80819 2.1044 8.53L7.9994 14.5L13.8944 8.53C14.6035 7.80819 15.0008 6.83682 15.0008 5.825C15.0008 4.81318 14.6035 3.84181 13.8944 3.12C13.546 2.76545 13.1304 2.48382 12.672 2.29153C12.2136 2.09924 11.7215 2.00014 11.2244 2Z" fill="#A56EFF"/>
</svg>
