<svg width="16" height="16" viewBox="0 0 16 16" fill="none" xmlns="http://www.w3.org/2000/svg">
<path d="M11.2249 3C11.5889 2.99969 11.9494 3.07207 12.2851 3.21287C12.6208 3.35368 12.925 3.56009 13.1799 3.82C13.7051 4.35319 13.9995 5.07158 13.9995 5.82C13.9995 6.56842 13.7051 7.28681 13.1799 7.82L7.99989 13.065L2.81989 7.82C2.29468 7.28681 2.00028 6.56842 2.00028 5.82C2.00028 5.07158 2.29468 4.35319 2.81989 3.82C3.07493 3.56028 3.37918 3.35398 3.71484 3.21315C4.05051 3.07232 4.41087 2.99979 4.77489 2.99979C5.1389 2.99979 5.49926 3.07232 5.83493 3.21315C6.1706 3.35398 6.47484 3.56028 6.72989 3.82L7.99989 5.12L9.26489 3.83C9.51901 3.56699 9.82356 3.35793 10.1603 3.21532C10.4971 3.07271 10.8592 2.99948 11.2249 3ZM11.2249 2C10.7277 1.99958 10.2354 2.09843 9.77694 2.29075C9.31846 2.48308 8.90299 2.765 8.55489 3.12L7.99989 3.68L7.44489 3.12C7.09636 2.76564 6.68079 2.48421 6.22238 2.2921C5.76398 2.09999 5.27192 2.00105 4.77489 2.00105C4.27786 2.00105 3.7858 2.09999 3.32739 2.2921C2.86899 2.48421 2.45341 2.76564 2.10489 3.12C1.39583 3.84181 0.998535 4.81318 0.998535 5.825C0.998535 6.83682 1.39583 7.80819 2.10489 8.53L7.99989 14.5L13.8949 8.53C14.6039 7.80819 15.0012 6.83682 15.0012 5.825C15.0012 4.81318 14.6039 3.84181 13.8949 3.12C13.5464 2.76545 13.1309 2.48382 12.6725 2.29153C12.2141 2.09924 11.722 2.00014 11.2249 2Z" fill="#C1C7CD"/>
</svg>
