<svg width="40" height="40" viewBox="0 0 40 40" fill="none" xmlns="http://www.w3.org/2000/svg">
<rect width="40" height="40" rx="20" fill="white" fill-opacity="0.9"/>
<path d="M24.6661 22.6675C24.1671 22.67 23.675 22.7845 23.2262 23.0026C22.7773 23.2206 22.3832 23.5367 22.0728 23.9275L17.1995 20.8808C17.3771 20.3076 17.3771 19.694 17.1995 19.1208L22.0728 16.0741C22.5674 16.6866 23.2629 17.1042 24.036 17.2531C24.809 17.4019 25.6098 17.2723 26.2965 16.8872C26.9832 16.5021 27.5114 15.8864 27.7875 15.1492C28.0637 14.412 28.0701 13.6008 27.8054 12.8593C27.5408 12.1179 27.0223 11.494 26.3417 11.0983C25.6612 10.7025 24.8625 10.5604 24.0872 10.6971C23.3119 10.8339 22.61 11.2406 22.1058 11.8453C21.6017 12.4499 21.3279 13.2135 21.3328 14.0008C21.336 14.2989 21.3808 14.5951 21.4661 14.8808L16.5928 17.9275C16.1626 17.3858 15.5745 16.9915 14.9101 16.7991C14.2457 16.6066 13.5379 16.6256 12.8848 16.8535C12.2317 17.0813 11.6657 17.5067 11.2651 18.0706C10.8646 18.6345 10.6494 19.3091 10.6494 20.0008C10.6494 20.6925 10.8646 21.3671 11.2651 21.931C11.6657 22.4949 12.2317 22.9203 12.8848 23.1481C13.5379 23.3759 14.2457 23.395 14.9101 23.2025C15.5745 23.0101 16.1626 22.6157 16.5928 22.0741L21.4661 25.1208C21.3808 25.4065 21.336 25.7027 21.3328 26.0008C21.3328 26.6601 21.5283 27.3045 21.8946 27.8527C22.2608 28.4009 22.7814 28.8281 23.3905 29.0804C23.9996 29.3327 24.6698 29.3987 25.3164 29.2701C25.963 29.1415 26.557 28.824 27.0232 28.3578C27.4893 27.8916 27.8068 27.2977 27.9354 26.6511C28.064 26.0045 27.998 25.3343 27.7457 24.7252C27.4934 24.1161 27.0662 23.5955 26.518 23.2292C25.9699 22.8629 25.3254 22.6675 24.6661 22.6675ZM24.6661 12.0008C25.0617 12.0008 25.4484 12.1181 25.7773 12.3378C26.1062 12.5576 26.3625 12.87 26.5139 13.2354C26.6653 13.6009 26.7049 14.003 26.6277 14.391C26.5505 14.7789 26.3601 15.1353 26.0804 15.415C25.8006 15.6947 25.4443 15.8852 25.0563 15.9624C24.6684 16.0395 24.2662 15.9999 23.9008 15.8485C23.5353 15.6972 23.223 15.4408 23.0032 15.1119C22.7834 14.783 22.6661 14.3963 22.6661 14.0008C22.6661 13.4704 22.8769 12.9616 23.2519 12.5866C23.627 12.2115 24.1357 12.0008 24.6661 12.0008ZM13.9995 22.0008C13.6039 22.0008 13.2172 21.8835 12.8883 21.6637C12.5594 21.444 12.3031 21.1316 12.1517 20.7662C12.0003 20.4007 11.9607 19.9986 12.0379 19.6106C12.1151 19.2226 12.3056 18.8663 12.5853 18.5866C12.865 18.3069 13.2213 18.1164 13.6093 18.0392C13.9973 17.962 14.3994 18.0017 14.7648 18.153C15.1303 18.3044 15.4426 18.5607 15.6624 18.8896C15.8822 19.2185 15.9995 19.6052 15.9995 20.0008C15.9995 20.5312 15.7888 21.0399 15.4137 21.415C15.0386 21.7901 14.5299 22.0008 13.9995 22.0008ZM24.6661 28.0008C24.2706 28.0008 23.8839 27.8835 23.555 27.6637C23.2261 27.444 22.9698 27.1316 22.8184 26.7662C22.667 26.4007 22.6274 25.9986 22.7046 25.6106C22.7817 25.2226 22.9722 24.8663 23.2519 24.5866C23.5316 24.3069 23.888 24.1164 24.276 24.0392C24.6639 23.962 25.0661 24.0017 25.4315 24.153C25.797 24.3044 26.1093 24.5607 26.3291 24.8896C26.5488 25.2185 26.6661 25.6052 26.6661 26.0008C26.6661 26.5312 26.4554 27.0399 26.0804 27.415C25.7053 27.7901 25.1966 28.0008 24.6661 28.0008Z" fill="#A56EFF"/>
</svg>
