<svg width="16" height="16" viewBox="0 0 16 16" fill="none" xmlns="http://www.w3.org/2000/svg">
<path d="M4.59 9.28578C4.5321 9.02807 4.50193 8.76491 4.5 8.50078V7.00078H3.5V8.50078C3.49812 9.0441 3.59643 9.58311 3.79 10.0908L4.59 9.28578Z" fill="#C1C7CD"/>
<path d="M6.5 7.50078V3.50078C6.5 3.10296 6.65804 2.72143 6.93934 2.44012C7.22064 2.15882 7.60218 2.00078 8 2.00078C8.39782 2.00078 8.77936 2.15882 9.06066 2.44012C9.34196 2.72143 9.5 3.10296 9.5 3.50078V4.37578L10.5 3.37578C10.4834 2.71274 10.2041 2.08344 9.72357 1.62632C9.24301 1.1692 8.60054 0.921706 7.9375 0.938282C7.27446 0.954858 6.64516 1.23415 6.18804 1.71471C5.73092 2.19527 5.48342 2.83774 5.5 3.50078V7.50078H6.5Z" fill="#C1C7CD"/>
<path d="M11.5 8.50078C11.498 9.17921 11.299 9.84245 10.927 10.4098C10.555 10.9772 10.0261 11.4242 9.40474 11.6965C8.78335 11.9687 8.09622 12.0546 7.42695 11.9435C6.75768 11.8324 6.13511 11.5292 5.635 11.0708L6.345 10.3658C6.70516 10.6839 7.14937 10.8915 7.62446 10.9637C8.09954 11.0359 8.58536 10.9696 9.02376 10.7728C9.46216 10.576 9.83455 10.2571 10.0964 9.85413C10.3582 9.45118 10.4983 8.98132 10.5 8.50078V6.21078L15 1.71078L14.295 1.00078L1 14.2958L1.705 15.0008L4.925 11.7808C5.63075 12.4474 6.53493 12.8653 7.5 12.9708V14.0008H5.5V15.0008H10.5V14.0008H8.5V12.9708C9.59968 12.8478 10.6155 12.324 11.3534 11.4994C12.0913 10.6749 12.4995 9.60731 12.5 8.50078V7.00078H11.5V8.50078ZM9.5 8.50078C9.4989 8.78425 9.4175 9.06161 9.26523 9.30072C9.11296 9.53982 8.89605 9.73088 8.63964 9.85176C8.38323 9.97264 8.09782 10.0184 7.81647 9.9837C7.53513 9.94902 7.26937 9.83532 7.05 9.65578L9.5 7.21078V8.50078Z" fill="#C1C7CD"/>
</svg>
