<svg width="16" height="16" viewBox="0 0 16 16" fill="none" xmlns="http://www.w3.org/2000/svg">
<path d="M6 5.00083H3.39C4.03668 4.007 4.98721 3.24875 6.09991 2.83912C7.21262 2.42949 8.4279 2.39042 9.56462 2.72773C10.7013 3.06503 11.6986 3.76065 12.4078 4.7109C13.117 5.66114 13.5001 6.81513 13.5 8.00083H14.5C14.5014 6.66358 14.0903 5.35844 13.3227 4.26339C12.5552 3.16833 11.4686 2.33666 10.2111 1.88177C8.95358 1.42688 7.58637 1.37091 6.29589 1.7215C5.00541 2.07209 3.85447 2.81217 3 3.84083V2.00083H2V6.00083H6V5.00083Z" fill="#C1C7CD"/>
<path d="M10 11.0008H12.61C11.9633 11.9947 11.0128 12.7529 9.90009 13.1625C8.78739 13.5722 7.5721 13.6112 6.43539 13.2739C5.29867 12.9366 4.30139 12.241 3.59221 11.2908C2.88303 10.3405 2.49993 9.18654 2.5 8.00083H1.5C1.49863 9.33809 1.90973 10.6432 2.67727 11.7383C3.4448 12.8333 4.53141 13.665 5.78892 14.1199C7.04642 14.5748 8.41363 14.6308 9.70411 14.2802C10.9946 13.9296 12.1455 13.1895 13 12.1608V14.0008H14V10.0008H10V11.0008Z" fill="#C1C7CD"/>
</svg>
