<svg width="16" height="17" viewBox="0 0 16 17" fill="none" xmlns="http://www.w3.org/2000/svg">
<path fill-rule="evenodd" clip-rule="evenodd" d="M10.0477 1.02688C9.89922 0.963766 9.7268 1.01479 9.63654 1.14856L8.00655 3.56446L6.3497 1.14655C6.2588 1.0139 6.08685 0.963943 5.93902 1.02724L5.36391 1.27351L5.36218 1.26711L2.17355 2.12707C2.04562 2.16157 1.94978 2.26782 1.92861 2.39861L0.0043591 14.2848C-0.0214529 14.4442 0.0694796 14.5995 0.221144 14.6551L1.98788 15.3022C2.14876 15.3611 2.32825 15.2899 2.40506 15.1368L3.2251 13.5016L3.20149 15.2109C3.20025 15.3011 3.2352 15.388 3.29853 15.4523C3.36187 15.5165 3.4483 15.5526 3.53849 15.5526H12.4616C12.5518 15.5526 12.6382 15.5164 12.7016 15.4522C12.7649 15.3879 12.7998 15.301 12.7986 15.2108L12.7737 13.471L13.6442 15.1415C13.7229 15.2926 13.9022 15.3612 14.0617 15.3011L15.7816 14.6541C15.9318 14.5976 16.0213 14.4431 15.9956 14.2848L14.0714 2.39861C14.0502 2.26771 13.9542 2.1614 13.8262 2.12699L10.6418 1.27129L10.6398 1.27849L10.0477 1.02688ZM11.8734 2.30022L11.0305 5.67592C11.0054 5.77652 10.9354 5.85995 10.8406 5.90214C10.7459 5.94433 10.6371 5.94058 10.5455 5.89197L8.34573 4.72432V14.8786H12.1197L11.9969 6.28026L12.6708 6.27063L12.7529 12.0116L12.7689 12.0032L14.1039 14.5651L15.2862 14.1203L13.4408 2.72141L11.8734 2.30022ZM7.67168 14.8786V4.72104L5.43632 5.89278C5.34452 5.9409 5.23569 5.9441 5.14122 5.90147C5.04675 5.85884 4.97714 5.77511 4.95249 5.67444L4.12578 2.2987L2.55922 2.7212L0.714215 14.1178L1.93733 14.5658L3.22017 12.0078L3.24555 12.0206L3.32495 6.27079L3.99894 6.2801L3.8802 14.8786H7.67168ZM5.50477 5.09585L7.51627 4.04145L5.95004 1.75578L4.8067 2.24537L5.50477 5.09585ZM10.4809 5.09455L8.49762 4.0418L10.0399 1.75593L11.1923 2.24563L10.4809 5.09455Z" fill="#C1C7CD"/>
</svg>
