<svg width="16" height="16" viewBox="0 0 16 16" fill="none" xmlns="http://www.w3.org/2000/svg">
<path d="M12.9999 14.5H12.9149C3.08988 13.935 1.69488 5.645 1.49988 3.115C1.48417 2.91829 1.50742 2.72041 1.56832 2.53271C1.62921 2.345 1.72654 2.17115 1.85474 2.02113C1.98293 1.8711 2.13947 1.74784 2.31538 1.65842C2.4913 1.569 2.68313 1.51516 2.87988 1.5H5.63488C5.83516 1.49981 6.03088 1.55976 6.1967 1.67208C6.36251 1.78441 6.49078 1.94394 6.56488 2.13L7.32488 4C7.39806 4.18177 7.41621 4.38104 7.3771 4.57305C7.33799 4.76505 7.24333 4.94134 7.10488 5.08L6.03988 6.155C6.20624 7.10037 6.65897 7.97183 7.33683 8.65148C8.01468 9.33112 8.88495 9.78615 9.82988 9.955L10.9149 8.88C11.0556 8.74308 11.2336 8.65063 11.4265 8.61417C11.6195 8.57771 11.8189 8.59887 11.9999 8.675L13.8849 9.43C14.0681 9.50644 14.2245 9.63571 14.334 9.80134C14.4435 9.96696 14.5013 10.1614 14.4999 10.36V13C14.4999 13.3978 14.3418 13.7794 14.0605 14.0607C13.7792 14.342 13.3977 14.5 12.9999 14.5ZM2.99988 2.5C2.86727 2.5 2.74009 2.55268 2.64633 2.64645C2.55256 2.74022 2.49988 2.86739 2.49988 3V3.04C2.72988 6 4.20488 13 12.9699 13.5C13.0356 13.5041 13.1014 13.4951 13.1636 13.4737C13.2259 13.4522 13.2832 13.4187 13.3325 13.375C13.3817 13.3314 13.4218 13.2784 13.4506 13.2192C13.4793 13.16 13.4961 13.0957 13.4999 13.03V10.36L11.6149 9.605L10.1799 11.03L9.93988 11C5.58988 10.455 4.99988 6.105 4.99988 6.06L4.96988 5.82L6.38988 4.385L5.63988 2.5H2.99988Z" fill="#C1C7CD"/>
</svg>
