<svg width="16" height="16" viewBox="0 0 16 16" fill="none" xmlns="http://www.w3.org/2000/svg">
<path d="M14.3798 5.675C14.3329 5.62012 14.2746 5.57606 14.209 5.54585C14.1434 5.51564 14.072 5.5 13.9998 5.5H10.9998V3.5C10.9998 3.10218 10.8418 2.72064 10.5605 2.43934C10.2792 2.15804 9.89763 2 9.4998 2H6.4998C6.10198 2 5.72045 2.15804 5.43914 2.43934C5.15784 2.72064 4.9998 3.10218 4.9998 3.5V5.5H1.9998C1.92733 5.49918 1.85554 5.51413 1.78941 5.5438C1.72328 5.57348 1.6644 5.61718 1.61684 5.67188C1.56928 5.72657 1.53418 5.79096 1.51397 5.86056C1.49376 5.93017 1.48893 6.00334 1.4998 6.075L2.4398 12.15C2.47596 12.3885 2.59709 12.6058 2.78085 12.762C2.96461 12.9182 3.19864 13.0027 3.4398 13H12.5698C12.811 13.0027 13.045 12.9182 13.2288 12.762C13.4125 12.6058 13.5336 12.3885 13.5698 12.15L14.4998 6.075C14.5098 6.00362 14.5043 5.93091 14.4836 5.86187C14.4629 5.79283 14.4275 5.72908 14.3798 5.675ZM5.9998 3.5C5.9998 3.36739 6.05248 3.24021 6.14625 3.14645C6.24002 3.05268 6.36719 3 6.4998 3H9.4998C9.63241 3 9.75959 3.05268 9.85336 3.14645C9.94712 3.24021 9.9998 3.36739 9.9998 3.5V5.5H5.9998V3.5ZM12.5698 12H3.4298L2.5848 6.5H13.4148L12.5698 12Z" fill="#C1C7CD"/>
</svg>
