<svg width="16" height="16" viewBox="0 0 16 16" fill="none" xmlns="http://www.w3.org/2000/svg">
<path d="M14 3V13H2V3H14ZM14 2H2C1.73478 2 1.48043 2.10536 1.29289 2.29289C1.10536 2.48043 1 2.73478 1 3V13C1 13.2652 1.10536 13.5196 1.29289 13.7071C1.48043 13.8946 1.73478 14 2 14H14C14.2652 14 14.5196 13.8946 14.7071 13.7071C14.8946 13.5196 15 13.2652 15 13V3C15 2.73478 14.8946 2.48043 14.7071 2.29289C14.5196 2.10536 14.2652 2 14 2Z" fill="#C1C7CD"/>
<path d="M6.5 5H3V6H6.5V5Z" fill="#C1C7CD"/>
<path d="M5 7H3V8H5V7Z" fill="#C1C7CD"/>
<path d="M11.5 9H8.5C8.10218 9 7.72064 9.15804 7.43934 9.43934C7.15804 9.72064 7 10.1022 7 10.5V11.5H8V10.5C8 10.3674 8.05268 10.2402 8.14645 10.1464C8.24021 10.0527 8.36739 10 8.5 10H11.5C11.6326 10 11.7598 10.0527 11.8536 10.1464C11.9473 10.2402 12 10.3674 12 10.5V11.5H13V10.5C13 10.1022 12.842 9.72064 12.5607 9.43934C12.2794 9.15804 11.8978 9 11.5 9Z" fill="#C1C7CD"/>
<path d="M10 8.5C10.3956 8.5 10.7822 8.3827 11.1111 8.16294C11.44 7.94318 11.6964 7.63082 11.8478 7.26537C11.9991 6.89992 12.0387 6.49778 11.9616 6.10982C11.8844 5.72186 11.6939 5.36549 11.4142 5.08579C11.1345 4.80608 10.7781 4.6156 10.3902 4.53843C10.0022 4.46126 9.60009 4.50087 9.23463 4.65224C8.86918 4.80362 8.55682 5.05996 8.33706 5.38886C8.1173 5.71776 8 6.10444 8 6.5C8 7.03043 8.21071 7.53914 8.58579 7.91421C8.96086 8.28929 9.46957 8.5 10 8.5ZM10 5.5C10.1978 5.5 10.3911 5.55865 10.5556 5.66853C10.72 5.77841 10.8482 5.93459 10.9239 6.11732C10.9996 6.30004 11.0194 6.50111 10.9808 6.69509C10.9422 6.88907 10.847 7.06725 10.7071 7.20711C10.5673 7.34696 10.3891 7.4422 10.1951 7.48079C10.0011 7.51937 9.80004 7.49957 9.61732 7.42388C9.43459 7.34819 9.27841 7.22002 9.16853 7.05557C9.05865 6.89112 9 6.69778 9 6.5C9 6.23478 9.10536 5.98043 9.29289 5.79289C9.48043 5.60536 9.73478 5.5 10 5.5Z" fill="#C1C7CD"/>
</svg>
