<svg width="16" height="16" viewBox="0 0 16 16" fill="none" xmlns="http://www.w3.org/2000/svg">
<path d="M13.7247 7.55476L2.7247 2.05476C2.63848 2.01164 2.54164 1.99437 2.44584 2.00501C2.35003 2.01566 2.25935 2.05377 2.1847 2.11476C2.11341 2.17451 2.0602 2.25295 2.03105 2.34128C2.0019 2.42961 1.99797 2.52432 2.0197 2.61476L3.4997 7.99976L1.9997 13.3698C1.97931 13.4453 1.97693 13.5245 1.99275 13.6012C2.00857 13.6778 2.04214 13.7496 2.09078 13.8109C2.13941 13.8722 2.20174 13.9212 2.27276 13.954C2.34379 13.9868 2.42151 14.0025 2.4997 13.9998C2.57797 13.9993 2.65504 13.9805 2.7247 13.9448L13.7247 8.44476C13.8066 8.4028 13.8753 8.33905 13.9233 8.26054C13.9713 8.18202 13.9967 8.09178 13.9967 7.99976C13.9967 7.90774 13.9713 7.8175 13.9233 7.73898C13.8753 7.66047 13.8066 7.59672 13.7247 7.55476ZM3.2747 12.5548L4.3797 8.49976H8.9997V7.49976H4.3797L3.2747 3.44476L12.3797 7.99976L3.2747 12.5548Z" fill="#C1C7CD"/>
</svg>
