<svg width="16" height="16" viewBox="0 0 16 16" fill="none" xmlns="http://www.w3.org/2000/svg">
<path d="M14 5H11.5V3C11.4997 2.73488 11.3942 2.4807 11.2068 2.29323C11.0193 2.10576 10.7651 2.0003 10.5 2H5.5C5.23488 2.0003 4.9807 2.10576 4.79323 2.29323C4.60576 2.4807 4.5003 2.73488 4.5 3V5H2C1.73488 5.0003 1.4807 5.10576 1.29323 5.29323C1.10576 5.4807 1.0003 5.73488 1 6V14C1.0003 14.2651 1.10576 14.5193 1.29323 14.7068C1.4807 14.8942 1.73488 14.9997 2 15H14C14.2651 14.9997 14.5193 14.8942 14.7068 14.7068C14.8942 14.5193 14.9997 14.2651 15 14V6C14.9997 5.73488 14.8942 5.4807 14.7068 5.29323C14.5193 5.10576 14.2651 5.0003 14 5ZM2 14V6H4.5V7H3.5V8H4.5V9H3.5V10H4.5V11H3.5V12H4.5V14H2ZM10.5 14H5.5V3H10.5V14ZM14 14H11.5V12H12.5V11H11.5V10H12.5V9H11.5V8H12.5V7H11.5V6H14V14Z" fill="white"/>
<path d="M9 4H7V5H9V4Z" fill="white"/>
<path d="M9 6H7V7H9V6Z" fill="white"/>
<path d="M9 8H7V9H9V8Z" fill="white"/>
</svg>
