<svg width="16" height="16" viewBox="0 0 16 16" fill="none" xmlns="http://www.w3.org/2000/svg">
<path d="M15 7.5H13.9746C13.8548 6.08818 13.2396 4.76421 12.2377 3.76231C11.2358 2.76042 9.91182 2.14517 8.5 2.0254V1H7.5V2.0254C6.08818 2.14517 4.76421 2.76042 3.76231 3.76231C2.76042 4.76421 2.14517 6.08818 2.0254 7.5H1V8.5H2.0254C2.14517 9.91182 2.76042 11.2358 3.76231 12.2377C4.76421 13.2396 6.08818 13.8548 7.5 13.9746V15H8.5V13.9746C9.91182 13.8548 11.2358 13.2396 12.2377 12.2377C13.2396 11.2358 13.8548 9.91182 13.9746 8.5H15V7.5ZM8.5 12.9746V11H7.5V12.9746C6.35311 12.8577 5.28166 12.3487 4.46648 11.5335C3.6513 10.7183 3.14231 9.64689 3.0254 8.5H5V7.5H3.0254C3.14231 6.35311 3.6513 5.28166 4.46648 4.46648C5.28166 3.6513 6.35311 3.14231 7.5 3.0254V5H8.5V3.0254C9.64689 3.14231 10.7183 3.6513 11.5335 4.46648C12.3487 5.28166 12.8577 6.35311 12.9746 7.5H11V8.5H12.9746C12.8577 9.64689 12.3487 10.7183 11.5335 11.5335C10.7183 12.3487 9.64689 12.8577 8.5 12.9746Z" fill="white"/>
</svg>
