<svg width="16" height="16" viewBox="0 0 16 16" fill="none" xmlns="http://www.w3.org/2000/svg">
<path d="M11.2264 3C11.5904 2.99969 11.9508 3.07207 12.2865 3.21287C12.6222 3.35368 12.9265 3.56009 13.1814 3.82C13.7066 4.35319 14.001 5.07158 14.001 5.82C14.001 6.56842 13.7066 7.28681 13.1814 7.82L8.00135 13.065L2.82135 7.82C2.29614 7.28681 2.00175 6.56842 2.00175 5.82C2.00175 5.07158 2.29614 4.35319 2.82135 3.82C3.0764 3.56028 3.38064 3.35398 3.71631 3.21315C4.05198 3.07232 4.41234 2.99979 4.77635 2.99979C5.14037 2.99979 5.50073 3.07232 5.8364 3.21315C6.17206 3.35398 6.47631 3.56028 6.73135 3.82L8.00135 5.12L9.26635 3.83C9.52047 3.56699 9.82502 3.35793 10.1618 3.21532C10.4986 3.07271 10.8606 2.99948 11.2264 3ZM11.2264 2C10.7292 1.99958 10.2369 2.09843 9.77841 2.29075C9.31992 2.48308 8.90445 2.765 8.55635 3.12L8.00135 3.68L7.44635 3.12C7.09783 2.76564 6.68225 2.48421 6.22385 2.2921C5.76544 2.09999 5.27338 2.00105 4.77635 2.00105C4.27932 2.00105 3.78726 2.09999 3.32886 2.2921C2.87045 2.48421 2.45488 2.76564 2.10635 3.12C1.39729 3.84181 1 4.81318 1 5.825C1 6.83682 1.39729 7.80819 2.10635 8.53L8.00135 14.5L13.8964 8.53C14.6054 7.80819 15.0027 6.83682 15.0027 5.825C15.0027 4.81318 14.6054 3.84181 13.8964 3.12C13.5479 2.76545 13.1324 2.48382 12.674 2.29153C12.2156 2.09924 11.7235 2.00014 11.2264 2Z" fill="white"/>
</svg>
