<svg width="16" height="16" viewBox="0 0 16 16" fill="none" xmlns="http://www.w3.org/2000/svg">
<path d="M5.5 11.5C5.3674 11.5 5.24022 11.4473 5.14645 11.3536C5.05268 11.2598 5 11.1326 5 11V5C4.99999 4.91476 5.02177 4.83094 5.06328 4.75649C5.10478 4.68204 5.16463 4.61943 5.23713 4.57462C5.30964 4.52981 5.3924 4.50427 5.47755 4.50045C5.5627 4.49662 5.64742 4.51462 5.72365 4.55275L11.7237 7.55275C11.8067 7.59427 11.8766 7.6581 11.9254 7.7371C11.9743 7.8161 12.0001 7.90713 12.0001 8C12.0001 8.09287 11.9743 8.1839 11.9254 8.2629C11.8766 8.3419 11.8067 8.40573 11.7237 8.44725L5.72365 11.4473C5.6542 11.4819 5.57764 11.5 5.5 11.5ZM6 5.80895V10.191L10.3821 8L6 5.80895Z" fill="white"/>
<path d="M8 2C9.18669 2 10.3467 2.35189 11.3334 3.01118C12.3201 3.67047 13.0892 4.60754 13.5433 5.7039C13.9974 6.80026 14.1162 8.00666 13.8847 9.17054C13.6532 10.3344 13.0818 11.4035 12.2426 12.2426C11.4035 13.0818 10.3344 13.6532 9.17054 13.8847C8.00666 14.1162 6.80026 13.9974 5.7039 13.5433C4.60755 13.0892 3.67047 12.3201 3.01119 11.3334C2.3519 10.3467 2 9.18669 2 8C2 6.4087 2.63214 4.88258 3.75736 3.75736C4.88258 2.63214 6.4087 2 8 2ZM8 1C6.61553 1 5.26216 1.41054 4.11101 2.17971C2.95987 2.94888 2.06266 4.04213 1.53285 5.32122C1.00303 6.6003 0.86441 8.00776 1.13451 9.36563C1.4046 10.7235 2.07129 11.9708 3.05026 12.9497C4.02922 13.9287 5.2765 14.5954 6.63437 14.8655C7.99224 15.1356 9.3997 14.997 10.6788 14.4672C11.9579 13.9373 13.0511 13.0401 13.8203 11.889C14.5895 10.7378 15 9.38447 15 8C15 6.14348 14.2625 4.36301 12.9497 3.05025C11.637 1.7375 9.85652 1 8 1Z" fill="white"/>
</svg>
