<svg width="16" height="16" viewBox="0 0 16 16" fill="none" xmlns="http://www.w3.org/2000/svg">
<path d="M14.4982 13.7931L10.7221 10.017C11.6295 8.9277 12.0819 7.5305 11.9854 6.11608C11.8888 4.70165 11.2507 3.37891 10.2037 2.423C9.15672 1.4671 7.78152 0.951637 6.36417 0.983845C4.94682 1.01605 3.59645 1.59345 2.59398 2.59593C1.5915 3.5984 1.0141 4.94877 0.981892 6.36612C0.949684 7.78347 1.46515 9.15867 2.42105 10.2057C3.37695 11.2526 4.6997 11.8908 6.11412 11.9873C7.52855 12.0839 8.92575 11.6314 10.0151 10.7241L13.7911 14.5001L14.4982 13.7931ZM1.99817 6.50012C1.99817 5.6101 2.26209 4.74007 2.75655 4.00005C3.25102 3.26003 3.95382 2.68325 4.77609 2.34266C5.59836 2.00207 6.50316 1.91295 7.37607 2.08658C8.24899 2.26022 9.05081 2.6888 9.68015 3.31814C10.3095 3.94747 10.7381 4.7493 10.9117 5.62221C11.0853 6.49513 10.9962 7.39993 10.6556 8.22219C10.315 9.04446 9.73825 9.74726 8.99823 10.2417C8.25821 10.7362 7.38818 11.0001 6.49817 11.0001C5.3051 10.9988 4.16127 10.5243 3.31765 9.68064C2.47402 8.83701 1.99949 7.69319 1.99817 6.50012Z" fill="white"/>
</svg>
