<svg width="16" height="16" viewBox="0 0 16 16" fill="none" xmlns="http://www.w3.org/2000/svg">
<path d="M13.7267 7.55476L2.72665 2.05476C2.64044 2.01164 2.5436 1.99437 2.44779 2.00501C2.35198 2.01566 2.2613 2.05377 2.18665 2.11476C2.11536 2.17451 2.06215 2.25295 2.03301 2.34128C2.00386 2.42961 1.99993 2.52432 2.02165 2.61476L3.50165 7.99976L2.00165 13.3698C1.98126 13.4453 1.97888 13.5245 1.9947 13.6012C2.01052 13.6778 2.0441 13.7496 2.09273 13.8109C2.14136 13.8722 2.2037 13.9212 2.27472 13.954C2.34574 13.9868 2.42347 14.0025 2.50165 13.9998C2.57992 13.9993 2.65699 13.9805 2.72665 13.9448L13.7267 8.44476C13.8086 8.4028 13.8773 8.33905 13.9253 8.26054C13.9733 8.18202 13.9987 8.09178 13.9987 7.99976C13.9987 7.90774 13.9733 7.8175 13.9253 7.73898C13.8773 7.66047 13.8086 7.59672 13.7267 7.55476ZM3.27665 12.5548L4.38165 8.49976H9.00165V7.49976H4.38165L3.27665 3.44476L12.3817 7.99976L3.27665 12.5548Z" fill="white"/>
</svg>
