<svg width="16" height="17" viewBox="0 0 16 17" fill="none" xmlns="http://www.w3.org/2000/svg">
<path fill-rule="evenodd" clip-rule="evenodd" d="M10.0479 1.02692C9.89942 0.963805 9.727 1.01483 9.63674 1.1486L8.00675 3.5645L6.3499 1.14659C6.259 1.01394 6.08705 0.963982 5.93922 1.02728L5.36411 1.27355L5.36238 1.26715L2.17375 2.12711C2.04582 2.16161 1.94998 2.26786 1.92881 2.39865L0.00455928 14.2848C-0.0212527 14.4442 0.0696798 14.5996 0.221344 14.6551L1.98808 15.3022C2.14896 15.3611 2.32845 15.29 2.40526 15.1368L3.2253 13.5017L3.20169 15.211C3.20045 15.3012 3.2354 15.3881 3.29873 15.4523C3.36207 15.5165 3.4485 15.5527 3.53869 15.5527H12.4618C12.552 15.5527 12.6384 15.5165 12.7018 15.4522C12.7651 15.388 12.8 15.301 12.7988 15.2108L12.7739 13.471L13.6444 15.1415C13.7231 15.2927 13.9024 15.3612 14.0619 15.3012L15.7818 14.6541C15.932 14.5976 16.0215 14.4431 15.9958 14.2848L14.0716 2.39865C14.0504 2.26775 13.9544 2.16144 13.8264 2.12703L10.642 1.27133L10.64 1.27853L10.0479 1.02692ZM11.8736 2.30026L11.0307 5.67596C11.0056 5.77656 10.9356 5.85999 10.8408 5.90218C10.7461 5.94437 10.6373 5.94062 10.5457 5.892L8.34593 4.72435V14.8786H12.1199L11.9971 6.28029L12.671 6.27067L12.7531 12.0116L12.7691 12.0032L14.1041 14.5651L15.2864 14.1203L13.441 2.72145L11.8736 2.30026ZM7.67188 14.8786V4.72108L5.43652 5.89282C5.34472 5.94094 5.23589 5.94414 5.14142 5.90151C5.04695 5.85888 4.97734 5.77515 4.95269 5.67448L4.12598 2.29874L2.55942 2.72124L0.714415 14.1179L1.93753 14.5659L3.22037 12.0079L3.24575 12.0206L3.32515 6.27083L3.99914 6.28013L3.8804 14.8786H7.67188ZM5.50497 5.09589L7.51647 4.04149L5.95024 1.75582L4.8069 2.24541L5.50497 5.09589ZM10.4811 5.09459L8.49782 4.04184L10.0401 1.75597L11.1925 2.24567L10.4811 5.09459Z" fill="white"/>
</svg>
