<svg width="16" height="16" viewBox="0 0 16 16" fill="none" xmlns="http://www.w3.org/2000/svg">
<path d="M14.3818 5.675C14.3348 5.62012 14.2765 5.57606 14.2109 5.54585C14.1453 5.51564 14.074 5.5 14.0018 5.5H11.0018V3.5C11.0018 3.10218 10.8437 2.72064 10.5624 2.43934C10.2811 2.15804 9.89958 2 9.50176 2H6.50176C6.10393 2 5.7224 2.15804 5.4411 2.43934C5.15979 2.72064 5.00176 3.10218 5.00176 3.5V5.5H2.00176C1.92928 5.49918 1.85749 5.51413 1.79136 5.5438C1.72524 5.57348 1.66635 5.61718 1.61879 5.67188C1.57123 5.72657 1.53613 5.79096 1.51592 5.86056C1.49571 5.93017 1.49088 6.00334 1.50176 6.075L2.44176 12.15C2.47792 12.3885 2.59904 12.6058 2.7828 12.762C2.96657 12.9182 3.20059 13.0027 3.44176 13H12.5718C12.8129 13.0027 13.0469 12.9182 13.2307 12.762C13.4145 12.6058 13.5356 12.3885 13.5718 12.15L14.5018 6.075C14.5118 6.00362 14.5062 5.93091 14.4855 5.86187C14.4648 5.79283 14.4294 5.72908 14.3818 5.675ZM6.00176 3.5C6.00176 3.36739 6.05443 3.24021 6.1482 3.14645C6.24197 3.05268 6.36915 3 6.50176 3H9.50176C9.63436 3 9.76154 3.05268 9.85531 3.14645C9.94908 3.24021 10.0018 3.36739 10.0018 3.5V5.5H6.00176V3.5ZM12.5718 12H3.43176L2.58676 6.5H13.4168L12.5718 12Z" fill="white"/>
</svg>
