<svg width="16" height="16" viewBox="0 0 16 16" fill="none" xmlns="http://www.w3.org/2000/svg">
<path d="M13.58 4.04028L12.815 4.68528C13.6009 5.61625 14.0199 6.80214 13.9932 8.02019C13.9665 9.23825 13.496 10.4046 12.67 11.3003L13.405 12.0003C14.3968 10.9255 14.962 9.5255 14.9942 8.06338C15.0264 6.60125 14.5235 5.1777 13.58 4.06028V4.04028Z" fill="white"/>
<path d="M10.79 6.00028C11.2614 6.55929 11.5124 7.27124 11.4959 8.0023C11.4793 8.73337 11.1963 9.43321 10.7 9.97028L11.435 10.6503C12.0964 9.93346 12.4732 8.99967 12.4944 8.02454C12.5155 7.04941 12.1797 6.10014 11.55 5.35528L10.79 6.00028Z" fill="white"/>
<path d="M9 15.0003C8.93385 15 8.86841 14.9866 8.80747 14.9609C8.74653 14.9351 8.69131 14.8975 8.645 14.8503L4.835 11.0003H1.5C1.36739 11.0003 1.24021 10.9476 1.14645 10.8538C1.05268 10.7601 1 10.6329 1 10.5003V5.50028C1 5.36767 1.05268 5.24049 1.14645 5.14673C1.24021 5.05296 1.36739 5.00028 1.5 5.00028H4.835L8.645 1.15028C8.73868 1.05715 8.86541 1.00488 8.9975 1.00488C9.12959 1.00488 9.25632 1.05715 9.35 1.15028C9.44421 1.24259 9.49812 1.36839 9.5 1.50028V14.5003C9.5 14.6329 9.44732 14.7601 9.35355 14.8538C9.25979 14.9476 9.13261 15.0003 9 15.0003ZM2 10.0003H5.04C5.10615 10.0006 5.17159 10.014 5.23253 10.0397C5.29347 10.0655 5.34869 10.103 5.395 10.1503L8.5 13.2853V2.71528L5.395 5.85028C5.34869 5.89752 5.29347 5.93511 5.23253 5.96086C5.17159 5.98661 5.10615 6.00001 5.04 6.00028H2V10.0003Z" fill="white"/>
</svg>
