<svg width="16" height="16" viewBox="0 0 16 16" fill="none" xmlns="http://www.w3.org/2000/svg">
<path d="M5.5 1H1V5.5H2V2H5.5V1Z" fill="white"/>
<path d="M1 10.5V15H5.5V14H2V10.5H1Z" fill="white"/>
<path d="M15 5.5V1H10.5V2H14V5.5H15Z" fill="white"/>
<path d="M10.5 15H15V10.5H14V14H10.5V15Z" fill="white"/>
<path d="M8 11.5C7.42247 11.5005 6.85382 11.3579 6.34487 11.0849C5.83593 10.8119 5.40256 10.4171 5.0835 9.9357L5.9165 9.382C6.14459 9.72579 6.4542 10.0078 6.81774 10.2029C7.18127 10.3979 7.58743 10.5 8 10.5C8.41257 10.5 8.81873 10.3979 9.18226 10.2029C9.5458 10.0078 9.85541 9.72579 10.0835 9.382L10.9165 9.9357C10.5974 10.4171 10.1641 10.8119 9.65513 11.0849C9.14619 11.3579 8.57753 11.5005 8 11.5Z" fill="white"/>
<path d="M10 6.00005C9.80222 6.00005 9.60888 6.0587 9.44443 6.16858C9.27998 6.27846 9.15181 6.43464 9.07612 6.61736C9.00043 6.80009 8.98063 7.00116 9.01921 7.19514C9.0578 7.38912 9.15304 7.5673 9.29289 7.70715C9.43275 7.84701 9.61093 7.94225 9.80491 7.98083C9.99889 8.01942 10.2 7.99962 10.3827 7.92393C10.5654 7.84824 10.7216 7.72007 10.8315 7.55562C10.9414 7.39117 11 7.19783 11 7.00005C11.0013 6.86837 10.9763 6.73775 10.9265 6.61584C10.8767 6.49393 10.8031 6.38317 10.71 6.29005C10.6169 6.19693 10.5061 6.12332 10.3842 6.07353C10.2623 6.02373 10.1317 5.99875 10 6.00005Z" fill="white"/>
<path d="M6 6.00005C5.80222 6.00005 5.60888 6.0587 5.44443 6.16858C5.27998 6.27846 5.15181 6.43464 5.07612 6.61736C5.00043 6.80009 4.98063 7.00116 5.01921 7.19514C5.0578 7.38912 5.15304 7.5673 5.29289 7.70715C5.43275 7.84701 5.61093 7.94225 5.80491 7.98083C5.99889 8.01942 6.19996 7.99962 6.38268 7.92393C6.56541 7.84824 6.72159 7.72007 6.83147 7.55562C6.94135 7.39117 7 7.19783 7 7.00005C7.0013 6.86837 6.97632 6.73775 6.92652 6.61584C6.87673 6.49393 6.80312 6.38317 6.71 6.29005C6.61688 6.19693 6.50612 6.12332 6.38421 6.07353C6.2623 6.02373 6.13168 5.99875 6 6.00005Z" fill="white"/>
</svg>
