<svg width="16" height="16" viewBox="0 0 16 16" fill="none" xmlns="http://www.w3.org/2000/svg">
<g clip-path="url(#clip0_739_11556)">
<path fill-rule="evenodd" clip-rule="evenodd" d="M6.5228 0.858464C5.95761 0.666612 5.34731 0.967576 5.15546 1.53275L2.0383 10.7155C2.40899 10.5268 2.82889 10.4205 3.27403 10.4205C3.66828 10.4205 4.04275 10.5039 4.38076 10.6541L7.58371 1.21859L6.5228 0.858464ZM4.52417 1.31846L1.03873 11.5861C0.731068 12.0273 0.550781 12.5641 0.550781 13.1437C0.550781 14.6498 1.76795 15.8669 3.27403 15.8669C3.90821 15.8669 4.49105 15.6503 4.95339 15.2875C5.03522 15.3064 5.12422 15.2946 5.20164 15.2475L14.6067 9.52612C15.4312 9.02457 15.692 7.95329 15.1905 7.12883L14.435 5.88689C14.3393 5.72961 14.1342 5.67967 13.9769 5.77535L5.13508 11.1541C5.0804 11.103 5.0236 11.0541 4.96482 11.0075L8.32215 1.11724C8.38132 0.942915 8.28797 0.753626 8.11365 0.69445L6.73709 0.227177C5.82326 -0.0830254 4.83437 0.404633 4.52417 1.31846ZM5.56674 11.6719C5.83929 12.0961 5.99727 12.6011 5.99727 13.1437C5.99727 13.4743 5.93824 13.7914 5.83009 14.0849L14.2602 8.95657C14.7701 8.64637 14.9311 7.98522 14.6209 7.47531L14.0386 6.51815L5.56674 11.6719ZM3.27403 11.0872C2.13615 11.0872 1.21745 12.0059 1.21745 13.1437C1.21745 14.2816 2.13615 15.2003 3.27403 15.2003C4.41148 15.2003 5.3306 14.2773 5.3306 13.1437C5.3306 12.0059 4.41191 11.0872 3.27403 11.0872Z" fill="white"/>
</g>
<defs>
<clipPath id="clip0_739_11556">
<rect width="16" height="16" fill="white"/>
</clipPath>
</defs>
</svg>
