<svg width="16" height="16" viewBox="0 0 16 16" fill="none" xmlns="http://www.w3.org/2000/svg">
<path d="M9.5 13V12H6.5V13H9.5Z" fill="white"/>
<path d="M12.5 15H3.5C3.23488 14.9997 2.9807 14.8942 2.79323 14.7068C2.60576 14.5193 2.5003 14.2651 2.5 14V2C2.50026 1.73486 2.60571 1.48066 2.79319 1.29319C2.98066 1.10571 3.23486 1.00026 3.5 1H12.5C12.7651 1.0003 13.0193 1.10576 13.2068 1.29323C13.3942 1.4807 13.4997 1.73488 13.5 2V14C13.4996 14.2651 13.3942 14.5193 13.2067 14.7067C13.0193 14.8942 12.7651 14.9996 12.5 15ZM3.5 2V14H12.5V2H3.5Z" fill="white"/>
</svg>
